<?xml version="1.0" encoding="UTF-8" standalone="no"?>
<svg
   width="399"
   height="135"
   viewBox="0 0 399 135"
   version="1.1"
   id="svg34"
   sodipodi:docname="world_bicycle_relief.svg"
   inkscape:version="1.1.1 (3bf5ae0d25, 2021-09-20)"
   xmlns:inkscape="http://www.inkscape.org/namespaces/inkscape"
   xmlns:sodipodi="http://sodipodi.sourceforge.net/DTD/sodipodi-0.dtd"
   xmlns="http://www.w3.org/2000/svg"
   xmlns:svg="http://www.w3.org/2000/svg">
  <defs
     id="defs38" />
  <sodipodi:namedview
     id="namedview36"
     pagecolor="#ffffff"
     bordercolor="#666666"
     borderopacity="1.0"
     inkscape:pageshadow="2"
     inkscape:pageopacity="0.0"
     inkscape:pagecheckerboard="0"
     showgrid="false"
     inkscape:zoom="7.4999396"
     inkscape:cx="284.20229"
     inkscape:cy="113.00091"
     inkscape:window-width="1920"
     inkscape:window-height="1017"
     inkscape:window-x="-8"
     inkscape:window-y="-8"
     inkscape:window-maximized="1"
     inkscape:current-layer="svg34" />
  <title
     id="title2">world-bicycle-relief</title>
  <g
     transform="translate(-1 -2)"
     fill="none"
     fill-rule="evenodd"
     id="g32">
    <path
       d="M119.124 71.24l3.796-6.13c8.759-13.723 26.277-30.074 48.175-36.789-11.387 9.343-21.314 21.606-28.321 36.788l-2.628 6.132c-3.212 8.175-6.131 18.686-7.3 29.489h6.424c1.168-10.22 3.796-21.022 7.591-29.49l2.92-6.13c7.883-15.767 20.438-30.365 37.08-40-6.423 10.51-13.43 28.029-16.35 40l-1.46 6.13c-1.46 5.84-3.504 18.979-4.087 29.49h6.423c.876-10.511 2.628-22.774 4.38-29.49l1.46-6.13c3.795-13.723 10.802-30.074 17.81-40.584v76.496h6.423V24.526c7.007 10.51 14.014 26.86 17.81 40.583l1.46 6.132c1.752 6.715 3.504 19.27 4.38 29.489h6.423c-.876-10.511-2.628-23.65-4.38-29.49l-1.46-6.13c-2.92-11.971-9.927-29.49-16.35-40 16.642 9.635 28.905 24.233 37.08 40l2.92 6.13c3.796 8.468 6.423 19.27 7.591 29.49h6.716c0-.292-.292-.584-.292-.876-1.168-10.51-4.088-20.73-7.3-28.613l-2.627-6.132c-7.008-14.89-16.643-27.445-28.322-36.788 21.898 6.715 39.417 22.774 48.176 36.788l3.795 6.132c4.964 9.051 8.175 19.27 9.927 29.489h6.424c-6.424-47.007-46.424-82.92-95.183-82.92-48.759 0-88.759 36.205-95.182 82.92h6.423c1.168-10.22 4.672-20.438 9.635-29.49z"
       id="path4" />
    <path
       d="M197.956 11.387c52.263 0 95.183 39.124 101.606 89.343h9.051c.292-.584.292-1.46.292-2.044l-1.46-8.759c-.292-2.044-2.336-3.504-4.087-3.212h-.292c-.292-.876-.292-1.751-.584-2.335h.292c1.752-.584 2.627-2.92 2.044-4.672l-2.92-8.467c-.584-2.044-2.628-2.92-4.672-2.336h-.292c-.292-.876-.584-1.46-1.168-2.336h.292c1.752-.876 2.336-3.211 1.168-4.963l-4.38-7.591c-1.167-1.752-3.211-2.628-4.963-1.46-.584-.584-.876-1.46-1.46-2.044 1.46-1.168 1.752-3.504.292-5.256l-5.84-6.715c-1.459-1.46-3.503-1.752-5.255-.584l-1.751-1.752c1.167-1.46.876-3.795-.584-5.255l-6.716-5.84c-1.46-1.46-3.795-1.167-5.255.292-.584-.583-1.46-.875-2.044-1.46.876-1.751.292-3.795-1.46-4.963l-7.591-4.38c-1.752-1.167-4.088-.583-4.964 1.168-.875-.292-1.46-.584-2.335-1.167.584-1.752-.584-3.796-2.336-4.38l-8.467-2.92c-2.044-.584-4.088.292-4.672 2.044-.876-.292-1.752-.584-2.336-.584.292-1.752-1.167-3.504-3.211-4.087l-8.76-1.46c-2.043-.292-3.795.876-4.379 2.627-.876 0-1.752-.292-2.628-.292 0-1.751-1.751-3.503-3.795-3.503h-9.051c-2.044 0-3.796 1.46-3.796 3.503-.876 0-1.752 0-2.628.292-.292-1.751-2.335-2.92-4.38-2.627l-8.758 1.46c-2.044.292-3.504 2.043-3.212 4.087-.876.292-1.752.292-2.336.584-.584-1.752-2.92-2.628-4.671-2.044l-8.468 2.92c-2.043.584-2.92 2.628-2.335 4.38-.876.292-1.46.583-2.336 1.167-.876-1.751-3.212-2.043-4.964-1.167l-7.59 4.38c-1.753 1.167-2.337 3.21-1.46 4.963-.585.584-1.46.876-2.044 1.46-1.168-1.46-3.504-1.46-5.256-.293l-6.715 5.84c-1.46 1.46-1.752 3.504-.584 5.255L120 37.956c-1.46-1.168-3.796-.876-5.255.584l-5.84 6.715c-1.46 1.46-1.168 3.796.292 5.256-.584.584-.876 1.46-1.46 2.044-1.752-.876-3.795-.292-4.963 1.46l-4.38 7.59c-1.168 1.753-.584 4.088 1.168 4.964h.292c-.292.876-.584 1.46-1.168 2.336h-.292c-1.752-.584-3.795.292-4.671 2.336l-2.92 8.467c-.584 2.044.292 4.088 2.044 4.672h.292c-.292.875-.292 1.46-.584 2.335h-.292c-2.044-.292-3.796 1.168-4.088 3.212l-1.46 8.76c0 .583 0 1.459.292 2.043h9.051c6.716-50.511 49.927-89.343 101.898-89.343z"
       fill="#000"
       fill-rule="nonzero"
       id="path6" />
    <path
       d="M197.956 11.387c-52.263 0-95.182 39.124-101.606 89.343h6.424c6.423-47.007 46.423-82.92 95.182-82.92 48.76 0 88.76 36.205 95.183 82.92h6.423c-6.423-50.511-49.343-89.343-101.606-89.343z"
       fill="#000"
       fill-rule="nonzero"
       id="path8" />
    <path
       d="M177.226 64.818l-1.46 6.13c-1.751 6.716-3.503 19.271-4.38 29.49h23.65V23.942c-7.007 10.803-14.014 27.445-17.81 40.876zm41.752 0c-3.796-13.723-10.803-30.073-17.81-40.584v76.496h23.65c-.876-10.511-2.628-22.774-4.38-29.49l-1.46-6.422zm27.153 0c-7.883-15.767-20.438-30.365-37.08-40 6.423 10.51 13.43 28.029 16.35 40l1.46 6.13c1.752 5.84 3.504 18.979 4.38 29.49h25.401c-1.168-10.219-3.795-21.022-7.59-29.49l-2.92-6.13z"
       fill="#000"
       fill-rule="nonzero"
       id="path10" />
    <path
       d="M273.285 64.818c-8.76-13.723-26.278-30.073-48.176-36.789 11.387 9.343 21.314 21.606 28.322 36.789l2.627 6.13c3.212 7.884 5.84 18.103 7.3 28.614 0 .292.292.584.292.876h23.357c-1.46-10.219-4.671-20.438-9.927-29.49l-3.795-6.13zm-102.774 0c2.92-11.971 10.219-29.49 16.35-40-16.642 9.635-28.905 24.233-37.08 40l-2.92 6.13c-3.795 8.468-6.423 19.271-7.59 29.49h25.4c.876-10.511 2.628-23.65 4.088-29.49l1.752-6.13z"
       fill="#000"
       fill-rule="nonzero"
       id="path12" />
    <path
       d="M142.774 64.818c7.007-14.891 16.642-27.446 28.32-36.789-21.897 6.716-39.415 22.774-48.174 36.789l-3.796 6.13c-4.963 9.052-8.175 19.271-9.635 29.49h23.65c1.168-11.095 4.087-21.606 7.299-29.49l2.336-6.13z"
       fill="#000"
       fill-rule="nonzero"
       id="path14" />
    <path
       fill="#000"
       fill-rule="nonzero"
       d="M2.33576642 136.058394L1.16788321 113.868613 6.13138686 113.868613 6.42335766 130.80292 15.4744526 113.868613 21.0218978 113.868613 21.3138686 130.80292 30.6569343 113.868613 35.3284672 113.868613 22.4817518 136.058394 16.6423358 136.058394 16.6423358 119.708029 7.88321168 136.058394z"
       id="path16" />
    <path
       d="M55.474 124.964c-1.751 6.715-5.839 11.386-14.306 11.386-7.591 0-9.927-3.795-7.883-11.678 2.335-8.76 7.883-11.387 14.306-11.387 5.84.292 10.511 2.335 7.883 11.679zm-13.43 7.59c4.38 0 7.007-3.21 8.175-7.59.876-3.212 1.46-7.592-3.796-7.592-4.087 0-6.715 2.92-8.175 7.592-1.168 4.087-.876 7.59 3.796 7.59zm13.43 3.504l6.132-22.19h11.387c5.255 0 7.299 1.752 5.84 6.716-.877 3.212-2.92 5.547-6.132 6.131l2.92 9.343h-5.256l-2.628-8.759H62.19l-2.336 8.76h-4.38zm9.635-18.102l-1.46 5.548h5.548c3.212 0 4.38-.584 4.964-2.92.292-1.46.875-2.628-3.504-2.628h-5.548zm28.03 18.102h-5.84c-5.547 0-9.05-1.167-6.715-9.05l3.796-13.14h4.671l-3.504 12.263c-1.167 4.38-1.751 6.424 3.212 6.424h5.548l-1.168 3.503zm2.335 0l6.132-22.19h10.219c7.3 0 9.343 3.796 7.3 11.387-1.46 4.964-4.38 10.511-13.14 10.511h-10.51v.292zm9.927-18.394l-4.087 14.307h5.255c3.796 0 5.548-.876 7.3-7.3 1.46-4.963 1.167-7.299-3.504-7.299h-4.964v.292zm25.694 18.394l6.131-22.19h11.387c3.796 0 8.175.293 6.423 6.132-.583 2.044-2.043 3.796-4.671 4.964 1.46.875 2.628 2.043 2.044 4.963-1.46 4.964-4.964 6.131-9.051 6.131h-12.263zm9.927-18.102l-1.46 4.964h6.715c1.752 0 3.212-.584 3.796-2.628.584-1.752-.292-2.628-2.336-2.628l-6.715.292zm-4.088 14.015h6.716c1.46 0 3.211-.292 3.795-2.628.584-1.752-.292-2.628-2.336-2.628h-6.715l-1.46 5.256z"
       fill="#000"
       fill-rule="nonzero"
       id="path18" />
    <path
       fill="#000"
       fill-rule="nonzero"
       d="M165.547445 113.868613L159.416058 136.058394 154.452555 136.058394 160.583942 113.868613z"
       id="path20" />
    <path
       d="M185.693 117.664h-7.59c-3.212 0-5.84 1.752-7.592 8.175-1.752 6.132.584 6.424 3.796 6.424h7.59l-1.167 3.795h-7.883c-7.008 0-9.343-3.795-7.3-10.51 1.752-6.716 5.548-11.387 13.723-11.387h7.591l-1.168 3.503z"
       fill="#000"
       fill-rule="nonzero"
       id="path22" />
    <path
       fill="#000"
       fill-rule="nonzero"
       d="M191.532847 126.131387L186.861314 113.868613 192.116788 113.868613 195.328467 122.335766 203.211679 113.868613 208.467153 113.868613 196.49635 126.131387 193.868613 135.766423 189.19708 135.766423z"
       id="path24" />
    <path
       d="M225.11 117.664h-7.592c-3.211 0-5.84 1.752-7.591 8.175-1.752 6.132.584 6.424 3.504 6.424h7.59l-1.167 3.795h-7.883c-7.007 0-9.343-3.795-7.3-10.51 1.752-6.716 5.548-11.387 13.723-11.387h7.591l-.876 3.503zm12.846 18.394h-5.84c-5.547 0-9.05-1.167-6.715-9.05l3.796-13.14h4.672l-3.504 12.263c-1.168 4.38-1.752 6.424 3.212 6.424h5.547l-1.168 3.503zm24.234-18.394h-7.591c-3.212 0-5.548 1.752-6.716 5.256h12.847l-1.168 3.795h-12.847c-1.168 4.088.292 5.548 3.796 5.548h7.591l-1.168 3.795h-7.883c-7.007 0-9.343-3.795-7.3-10.51 1.753-6.716 5.548-11.387 13.723-11.387h7.592l-.876 3.503zm11.095 18.394l6.131-22.19h11.387c5.255 0 7.3 1.752 5.84 6.716-.877 3.212-2.92 5.547-6.132 6.131l2.92 9.343h-5.256l-2.628-8.759h-5.255l-2.336 8.76h-4.671zm9.635-18.102l-1.46 5.548h5.547c3.212 0 4.38-.584 4.964-2.92.292-1.46.876-2.628-3.504-2.628h-5.547zm35.036-.292h-7.591c-3.212 0-5.547 1.752-6.715 5.256h12.846l-1.168 3.795h-12.846c-1.168 4.088.292 5.548 3.795 5.548h7.592l-1.168 3.795h-7.883c-7.008 0-9.344-3.795-7.3-10.51 1.752-6.716 5.548-11.387 13.723-11.387h7.591l-.876 3.503zm13.723 18.394h-5.84c-5.547 0-9.05-1.167-6.715-9.05l3.796-13.14h4.671l-3.503 12.263c-1.168 4.38-1.752 6.424 3.211 6.424h5.548l-1.168 3.503z"
       fill="#000"
       fill-rule="nonzero"
       id="path26" />
    <path
       fill="#000"
       fill-rule="nonzero"
       d="M345.109489 113.868613L338.978102 136.058394 334.014599 136.058394 340.145985 113.868613z"
       id="path28" />
    <path
       d="M365.547 117.664h-7.59c-3.212 0-5.548 1.752-6.716 5.256h12.847l-1.168 3.795h-12.847c-1.168 4.088.292 5.548 3.796 5.548h7.59l-1.167 3.795h-7.883c-7.008 0-9.343-3.795-7.3-10.51 1.752-6.716 5.548-11.387 13.723-11.387h7.591l-.876 3.503zm-1.167 18.394l2.92-10.219c2.919-10.803 7.299-11.97 14.306-11.97h7.007l-1.168 3.795h-7.591c-3.796 0-5.84 1.168-7.3 5.548h13.14l-1.168 3.795h-13.14l-2.627 9.051h-4.38zm30.948-24.525c2.336 0 4.38 2.044 4.38 4.38 0 2.335-2.044 4.379-4.38 4.379-2.335 0-4.38-2.044-4.38-4.38 0-2.627 1.753-4.38 4.38-4.38zm0 .584c-2.043 0-3.503 1.752-3.503 3.795 0 2.044 1.46 3.796 3.503 3.796 2.044 0 3.504-1.752 3.504-3.796 0-2.043-1.752-3.795-3.504-3.795zm-.875 6.131h-.876v-4.963h1.46c.875 0 1.167.292 1.46.292.291.292.583.584.583.876 0 .583-.292 1.167-.876 1.167.292 0 .584.584.876 1.168 0 .876.292 1.168.292 1.168h-.876c0-.292-.292-.584-.292-1.168s-.292-.876-1.168-.876h-.583v2.336zm0-2.628h.583c.584 0 1.168-.292 1.168-.875 0-.292-.292-.876-1.168-.876h-.583v1.751z"
       fill="white"
       fill-rule="nonzero"
       id="path30" />
  </g>
  <path
     style="fill:#ffffff;stroke-width:0.377127"
     d=""
     id="path910" />
  <path
     style="fill:#ffffff;stroke-width:0.377127"
     d="m 85.987378,97.204395 c 0.0036,-1.788602 1.387332,-9.538853 1.861032,-10.423969 0.553607,-1.034425 1.902467,-1.926929 2.912206,-1.926929 0.933681,0 1.050476,-0.132002 1.395457,-1.577136 0.193111,-0.808948 0.086,-1.060789 -0.535019,-1.257891 -0.427058,-0.135543 -1.056413,-0.833487 -1.398566,-1.55099 -0.61124,-1.281785 -0.593745,-1.390451 1.00257,-6.227258 1.94793,-5.902195 2.895023,-7.21323 5.187977,-7.181586 1.348196,0.01859 1.591354,-0.116539 2.084972,-1.158827 0.527671,-1.114187 0.509814,-1.223078 -0.320676,-1.955492 -1.737408,-1.532232 -1.541751,-2.605115 1.398819,-7.670398 1.47898,-2.547619 3.1109,-4.908443 3.6265,-5.246273 0.52122,-0.341518 1.59243,-0.588574 2.41264,-0.556435 1.19137,0.04668 1.59363,-0.122951 2.09077,-0.881677 0.57082,-0.871193 0.56893,-1.037777 -0.0261,-2.291746 -0.39107,-0.824123 -0.54753,-1.727429 -0.4006,-2.312846 0.30482,-1.214491 6.4593,-8.304197 7.81984,-9.008137 1.18868,-0.615017 2.34064,-0.673157 3.28834,-0.165964 0.91293,0.488587 2.8235,-1.394961 2.28267,-2.250385 -0.40969,-0.647993 -0.47572,-2.290505 -0.12847,-3.195427 0.13107,-0.341575 2.0905,-2.222232 4.35429,-4.179238 3.70553,-3.20337 4.26518,-3.558192 5.61226,-3.558192 0.82296,0 1.81676,0.200133 2.20843,0.44474 0.56912,0.35542 0.90322,0.319542 1.66354,-0.17864 0.80144,-0.525121 0.94122,-0.88642 0.88681,-2.292195 -0.0849,-2.193114 0.39095,-2.678036 5.5904,-5.69732 4.65673,-2.704127 6.35538,-3.079828 7.72632,-1.708883 0.70657,0.706568 0.82262,0.715549 1.99877,0.154683 1.0476,-0.499567 1.24865,-0.799489 1.24865,-1.862744 0,-0.697018 0.29725,-1.59576 0.66055,-1.9972049 0.68534,-0.7572858 10.11716,-4.2102619 11.50035,-4.2102619 0.43231,0 1.35773,0.5019755 2.0565,1.1155014 1.63362,1.4343412 3.26832,1.1742555 3.72622,-0.5928563 0.54376,-2.0984597 1.61193,-2.6696715 6.5738,-3.5154083 2.51207,-0.4281769 5.16208,-0.7785034 5.88888,-0.7785034 1.44778,0 3.30882,1.2047187 3.30882,2.1419169 0,0.3727282 0.2123,0.4972004 0.59654,0.3497548 0.32809,-0.1259015 1.00369,-0.2289118 1.50132,-0.2289118 0.6521,0 0.97129,-0.2649699 1.14292,-0.9487813 0.13097,-0.5218297 0.66621,-1.2855112 1.18942,-1.6970699 0.85719,-0.67426332 1.5381,-0.74828865 6.88304,-0.74828865 5.90617,0 5.93602,0.004286 6.92598,0.99424295 0.54684,0.5468337 0.99424,1.2919482 0.99424,1.6558101 0,0.4831119 0.37956,0.7058782 1.4071,0.825837 1.21165,0.1414534 1.57141,-0.00996 2.59013,-1.0901199 1.43129,-1.517612 2.25323,-1.5692651 8.32771,-0.523342 4.79683,0.8259336 5.85438,1.3640249 6.66563,3.3915284 0.7483,1.8701817 2.26535,2.2808771 3.50086,0.9477472 1.41401,-1.525742 2.36254,-1.4993326 7.48718,0.2084621 5.48151,1.8267226 6.97981,2.8439833 6.97981,4.7389095 0,1.046497 0.21096,1.38583 1.16986,1.881695 1.11844,0.578369 1.21006,0.567192 2.08451,-0.254304 1.51295,-1.421352 2.86555,-1.117576 7.81943,1.756148 2.46074,1.427469 4.73122,2.987852 5.04551,3.467518 0.38154,0.582307 0.50418,1.373519 0.36905,2.380963 -0.18553,1.383318 -0.10835,1.557467 0.9278,2.09328 1.0281,0.531651 1.24924,0.527934 2.44851,-0.04116 0.72509,-0.344077 1.69592,-0.530829 2.15739,-0.415005 1.05773,0.265472 8.11295,6.289472 8.99462,7.679919 0.75634,1.192801 0.84302,2.446023 0.2463,3.560995 -0.34503,0.644701 -0.25694,0.935353 0.51851,1.7108 0.77544,0.775446 1.06609,0.863536 1.7108,0.518502 1.11511,-0.596791 2.36875,-0.509997 3.55763,0.246308 1.31156,0.834336 7.0168,7.435566 7.48056,8.655349 0.40295,1.059839 0.11944,2.534755 -0.6024,3.133824 -0.41031,0.340527 -0.38701,0.613031 0.13129,1.535256 0.55866,0.994065 0.77986,1.097627 1.95008,0.912998 2.15562,-0.340097 3.29182,0.689677 6.03402,5.468823 1.34823,2.34971 2.54924,4.625428 2.66891,5.057147 0.29696,1.071251 -0.33337,2.79366 -1.19017,3.252201 -0.67309,0.360228 -0.67603,0.43721 -0.0657,1.717163 0.53605,1.124094 0.79273,1.310112 1.59289,1.154374 1.14433,-0.222728 3.24472,0.693441 3.60601,1.572901 0.14253,0.346964 0.99863,2.813376 1.90244,5.480917 1.53065,4.517657 1.60809,4.934303 1.12979,6.079018 -0.28241,0.67592 -0.87174,1.479882 -1.30961,1.786581 -1.0419,0.729774 -0.73745,2.935082 0.4052,2.935082 1.12278,0 2.74128,0.973175 3.23932,1.947742 0.44417,0.869183 1.97458,9.25694 1.97458,10.822178 0,0.779287 -0.15345,0.80664 -4.52552,0.80664 -2.55042,0 -4.52552,-0.153634 -4.52552,-0.352022 0,-0.193609 -0.41971,-2.611934 -0.93269,-5.374054 -5.83887,-31.439243 -26.58245,-58.714221 -55.44774,-72.906242 -12.42931,-6.11104 -25.0698,-9.448185 -39.27236,-10.3680834 -3.08315,-0.1996946 -6.02998,-0.3426818 -6.54853,-0.3177499 -1.6988,0.081679 3.13987,0.6178915 5.92043,0.6560906 3.32737,0.045711 10.38855,0.9464787 15.19866,1.9388327 30.25718,6.242244 55.86361,25.672518 70.11935,53.206881 5.12688,9.902339 8.77834,21.151344 10.35923,31.913558 l 0.23544,1.602789 h -3.00438 -3.00438 l -0.22307,-1.414225 c -6.1622,-39.067495 -35.65306,-70.528383 -74.10505,-79.055352 -13.30177,-2.949749 -28.98736,-2.949001 -42.23819,0.002 -36.73533,8.181114 -65.14276,37.037748 -72.97385,74.127792 -0.51864,2.456381 -0.94297,4.887709 -0.94297,5.402958 0,0.920921 -0.0521,0.936813 -3.06894,0.936813 h -3.068937 l 0.252804,-2.168479 c 0.705324,-6.050077 3.716149,-16.635184 6.879033,-24.184491 5.86258,-13.993096 15.68685,-27.484764 27.23925,-37.407679 17.18562,-14.761558 37.17788,-23.048885 60.01442,-24.8775867 l 3.95983,-0.3170949 -4.33695,0.1579765 C 182.00893,9.9126625 172.89359,11.668392 164.46829,14.491628 132.70859,25.134 108.13128,50.428015 98.396605,82.490041 97.207372,86.406889 95.601193,93.462499 95.218651,96.450142 l -0.253512,1.979915 h -4.490131 -4.490131 l 0.0025,-1.225662 z"
     id="path949" />
  <path
     style="fill:#ffffff;stroke-width:0.377127"
     d="m 108.7742,97.581522 c 0.0969,-0.466694 0.54075,-2.630459 0.98645,-4.808365 4.84546,-23.677414 19.74963,-44.525165 41.30994,-57.783761 1.88403,-1.158591 4.65406,-2.725216 6.15561,-3.481387 2.57659,-1.297548 10.66853,-4.732017 11.14909,-4.732017 0.12223,0 -2.01085,2.163545 -4.74018,4.807877 -10.9567,10.615496 -18.78803,22.545555 -24.29044,37.003469 -3.53595,9.290941 -6.21787,19.668973 -7.15167,27.67424 l -0.25294,2.168479 h -11.67098 -11.67097 z"
     id="path988" />
  <path
     style="fill:#ffffff;stroke-width:0.377127"
     d="m 138.57109,97.204395 c 1.74476,-10.704039 2.78386,-15.156818 5.12823,-21.97563 3.16827,-9.215207 10.04537,-21.564979 16.58609,-29.785003 3.35138,-4.211834 10.10411,-11.059419 14.13567,-14.334225 3.6418,-2.958212 10.03254,-7.437585 10.271,-7.199118 0.0798,0.07979 -1.12662,2.684216 -2.6809,5.787613 -5.45646,10.894722 -9.73629,22.093701 -13.00745,34.036373 -2.4179,8.827501 -4.38045,20.69536 -5.19182,31.395793 l -0.25022,3.299859 H 150.9665 138.3713 Z"
     id="path1027" />
  <path
     style="fill:#ffffff;stroke-width:0.377127"
     d="m 170.6493,97.392958 c 0.0931,-0.570404 0.35666,-2.903875 0.58576,-5.185491 1.70267,-16.956474 5.29253,-31.925673 11.15985,-46.535001 2.2886,-5.698487 8.06408,-17.570796 10.10981,-20.782107 l 1.32134,-2.074196 0.009,37.806947 0.009,37.806947 h -11.6815 -11.6815 z"
     id="path1066" />
  <path
     style="fill:#ffffff;stroke-width:0.377127"
     d="m 200.26277,60.62311 0.009,-37.806947 1.31519,2.074196 c 3.81086,6.01015 9.83366,19.080975 13.11987,28.473063 3.85275,11.011298 6.44808,22.916851 7.97446,36.581285 0.32438,2.903875 0.68242,6.001028 0.79565,6.882561 l 0.20586,1.602789 h -11.71403 -11.71404 z"
     id="path1105" />
  <path
     style="fill:#ffffff;stroke-width:0.377127"
     d="m 230.24947,96.073015 c -1.50121,-14.211844 -2.49804,-20.320538 -4.95645,-30.37366 -3.02925,-12.387475 -7.34219,-24.153375 -13.02128,-35.522714 -1.60413,-3.211425 -2.84145,-5.914112 -2.74959,-6.005972 0.0919,-0.09186 1.82014,0.952416 3.84063,2.320613 15.29498,10.357183 27.69178,26.041514 35.33718,44.708311 2.81448,6.871756 5.5169,17.38742 6.44068,25.061985 l 0.26101,2.168479 h -12.4516 -12.45161 z"
     id="path1144" />
  <path
     style="fill:#ffffff;stroke-width:0.377127"
     d="m 262.67388,97.581522 c -0.10877,-0.466694 -0.62914,-3.224433 -1.15638,-6.128308 -1.77253,-9.762493 -3.93987,-17.1173 -7.53635,-25.574324 -5.63574,-13.252308 -12.9478,-23.960282 -23.28965,-34.105969 -2.80145,-2.748311 -5.01944,-4.996929 -4.92887,-4.996929 0.74614,0 7.9866,3.136357 11.6386,5.041501 24.52273,12.792816 42.57066,36.24401 47.49167,61.709917 0.34069,1.763067 0.70135,3.587418 0.80146,4.054112 l 0.18201,0.848535 h -11.50236 -11.50236 z"
     id="path1183" />
  <path
     style="fill:#ffffff;stroke-width:0.377127"
     d="m 1.5003147,133.21999 c -0.00451,-0.36298 -0.2553797,-4.9875 -0.55749806,-10.2767 -0.30211839,-5.2892 -0.55299255,-9.91372 -0.55749808,-10.2767 -0.006884,-0.55458 0.3455983,-0.65997 2.20716414,-0.65997 h 2.215356 l 0.3302491,8.57963 0.3302487,8.57963 3.9184323,-7.35397 c 5.8040652,-10.89286 4.9176452,-9.80529 7.9918152,-9.80529 h 2.609129 v 8.48535 c 0,4.66694 0.12728,8.48111 0.282845,8.47594 0.155564,-0.005 2.371429,-3.82358 4.924143,-8.48535 l 4.641298,-8.47594 h 2.064745 c 2.050703,0 2.061456,0.006 1.581291,0.88177 -0.265899,0.48497 -3.108004,5.40647 -6.315788,10.93667 l -5.832335,10.0549 h -2.747297 -2.747296 l -0.01199,-8.2025 c -0.01083,-7.40566 -0.06744,-8.12923 -0.582718,-7.44825 -0.313898,0.41484 -2.355416,4.10596 -4.536708,8.2025 l -3.9659838,7.44825 H 4.1252116 c -2.2375615,0 -2.617892,-0.0956 -2.6248969,-0.65997 z"
     id="path1222" />
  <path
     style="fill:#ffffff;stroke-width:0.377127"
     d="m 37.335539,133.92576 c -4.650253,-1.01496 -6.306503,-4.17326 -5.132052,-9.78632 1.157733,-5.53315 3.75204,-9.33203 7.688085,-11.25776 1.650487,-0.8075 2.786218,-1.05877 5.333138,-1.1799 3.890807,-0.18503 6.006738,0.32316 7.761877,1.86419 1.841675,1.61701 2.33277,3.48327 1.774023,6.74163 -1.179025,6.87554 -4.281807,11.29674 -9.127966,13.00656 -1.86527,0.65811 -6.514022,1.00078 -8.297105,0.6116 z m 7.919659,-4.49661 c 2.484068,-1.5321 4.211413,-5.04153 4.441718,-9.02421 0.14229,-2.46062 0.05685,-3.0689 -0.533354,-3.79713 -1.558758,-1.92331 -6.014457,-1.74999 -8.540525,0.33221 -3.057511,2.52026 -5.105943,9.68542 -3.478869,12.16865 1.31053,2.00012 5.142262,2.15152 8.11103,0.32048 z"
     id="path1261" />
  <path
     style="fill:#ffffff;stroke-width:0.133334"
     d="m 54.734489,133.36774 c 0.102488,-0.34834 1.451881,-5.22337 2.99865,-10.83342 1.546769,-5.61004 2.845841,-10.31172 2.886826,-10.44816 0.07171,-0.23873 0.324004,-0.24555 6.694241,-0.18111 7.138266,0.0722 7.690363,0.12176 9.053184,0.81235 0.730431,0.37014 1.29787,0.96408 1.608417,1.68352 0.29591,0.68554 0.24891,2.37169 -0.104064,3.7333 -0.875656,3.37787 -2.743125,5.52674 -5.499304,6.32799 l -0.753458,0.21903 0.189597,0.62656 c 0.104279,0.3446 0.753649,2.42656 1.443044,4.62658 l 1.253445,4.00003 -2.475891,0.0364 c -1.36174,0.02 -2.519189,-0.01 -2.57211,-0.0667 -0.05292,-0.0567 -0.526221,-1.54304 -1.05178,-3.30306 -0.525558,-1.76001 -1.105258,-3.69503 -1.288223,-4.30003 l -0.332662,-1.10001 -2.825288,1.3e-4 -2.825287,1.4e-4 -1.054122,3.96651 c -0.579767,2.18159 -1.107592,4.16152 -1.172944,4.39985 l -0.118821,0.43334 h -2.119896 -2.119897 l 0.186343,-0.63334 z m 15.266075,-11.90412 c 1.943078,-0.25091 2.733029,-0.98189 3.22805,-2.98707 0.578407,-2.34296 -0.0077,-2.60156 -5.907218,-2.60631 l -3.279172,-0.003 -0.692347,2.66834 c -0.38079,1.46759 -0.726597,2.75761 -0.768459,2.86669 -0.06611,0.1723 0.350461,0.19781 3.171513,0.19423 1.786194,-0.002 3.697628,-0.0622 4.247633,-0.13324 z"
     id="path1300" />
  <path
     style="fill:#ffffff;stroke-width:0.133334"
     d="m 83.294108,133.7927 c -2.891023,-0.44985 -4.20706,-1.76439 -4.329904,-4.32499 -0.07653,-1.59524 0.175612,-2.6772 2.48581,-10.66675 l 1.985528,-6.86673 2.279602,-0.0365 c 1.80033,-0.0288 2.267199,-7.7e-4 2.220608,0.13333 -0.223916,0.6445 -3.615763,12.68601 -3.876282,13.76132 -0.186219,0.76863 -0.324978,1.74068 -0.324791,2.27528 7.66e-4,2.19584 1.029482,2.60002 6.617529,2.60002 h 2.825165 l -0.551718,1.66668 -0.551717,1.66668 -3.803296,-0.0129 c -2.49654,-0.008 -4.206402,-0.0756 -4.976534,-0.19547 z"
     id="path1339" />
  <path
     style="fill:#ffffff;stroke-width:0.133334"
     d="m 94.667429,133.69724 c 0,-0.0545 5.767711,-20.99288 5.953081,-21.61128 0.0716,-0.23873 0.30587,-0.2456 6.09408,-0.17856 6.61649,0.0766 7.25,0.14072 8.87426,0.89792 2.10283,0.9803 3.20491,2.90824 3.21014,5.61572 0.003,1.45427 -0.44989,3.90668 -1.05552,5.71807 -1.79496,5.36856 -4.64539,8.15455 -9.48314,9.26875 -0.8388,0.19318 -1.97007,0.23813 -7.29285,0.28973 -3.465028,0.0336 -6.300051,0.0334 -6.300051,-3.5e-4 z m 13.077251,-3.83151 c 2.61569,-0.49606 3.99998,-2.53451 5.39204,-7.94006 0.80602,-3.12992 0.74245,-4.6776 -0.23091,-5.62101 -0.8301,-0.80457 -1.26238,-0.8849 -5.0595,-0.94024 -3.2197,-0.0469 -3.42553,-0.0355 -3.494,0.19333 -0.30829,1.03047 -4.08484,14.31933 -4.08484,14.37368 0,0.12987 6.75915,0.0705 7.47721,-0.0657 z"
     id="path1378" />
  <path
     style="fill:#ffffff;stroke-width:0.133334"
     d="m 130.26772,133.86295 c 0,-0.0841 1.35001,-5.03665 3.00002,-11.0056 1.65001,-5.96896 3.00002,-10.89138 3.00002,-10.93871 0,-0.0473 3.13503,-0.0529 6.96673,-0.0123 7.52036,0.0796 8.04737,0.12554 9.4188,0.8205 1.95644,0.9914 2.24047,3.64844 0.71346,6.67412 -0.47976,0.9506 -2.03995,2.44858 -3.13167,3.00679 -0.49471,0.25295 -0.88471,0.49837 -0.86667,0.54538 0.018,0.047 0.34022,0.32742 0.71596,0.62313 0.89732,0.70619 1.29493,1.51724 1.36112,2.77644 0.0948,1.80309 -0.76169,3.77851 -2.30552,5.31756 -1.04949,1.04624 -1.87859,1.51343 -3.47213,1.95654 -1.03059,0.28656 -1.30911,0.29816 -8.2334,0.34285 -5.32882,0.0344 -7.16672,0.007 -7.16672,-0.1067 z m 14.11659,-4.06925 c 0.95862,-0.28468 1.63163,-0.98071 1.99839,-2.06675 0.40879,-1.21051 0.38161,-1.91666 -0.092,-2.39029 -0.60205,-0.60205 -1.10929,-0.66744 -5.18389,-0.66825 l -3.76105,-7.4e-4 -0.26157,0.90001 c -0.14386,0.495 -0.45066,1.59001 -0.68177,2.43335 -0.23111,0.84334 -0.44999,1.63835 -0.4864,1.76668 -0.062,0.21843 0.18405,0.23334 3.85195,0.23334 3.15629,0 4.05391,-0.0403 4.61637,-0.20735 z m 2.43256,-8.99486 c 1.14514,-0.31809 2.10074,-1.4119 2.39939,-2.74644 0.23387,-1.04501 -0.006,-1.71984 -0.7484,-2.10684 -0.49676,-0.2589 -0.71163,-0.27507 -3.13336,-0.23585 -1.43001,0.0232 -3.22661,0.0832 -3.99245,0.13333 l -1.39243,0.0912 -0.63489,2.13335 c -0.34919,1.17334 -0.67237,2.29835 -0.71818,2.50002 l -0.0833,0.36667 3.91063,-7.5e-4 c 2.20829,-4.1e-4 4.1206,-0.0591 4.39298,-0.13473 z"
     id="path1417" />
  <path
     style="fill:#ffffff;stroke-width:0.133334"
     d="m 153.60124,133.90459 c 0,-0.0531 1.36333,-5.03311 3.02963,-11.06675 l 3.02963,-10.97027 h 2.37041 c 1.30373,0 2.37191,0.045 2.37374,0.1 0.002,0.055 -1.35888,5.03504 -3.02381,11.06675 l -3.02713,10.96676 h -2.37624 c -1.30693,0 -2.37623,-0.0434 -2.37623,-0.0965 z"
     id="path1456" />
  <path
     style="fill:#ffffff;stroke-width:0.133334"
     d="m 169.79824,133.86935 c -4.71178,-0.69261 -6.64835,-3.68157 -5.60127,-8.64514 0.55991,-2.65416 1.80321,-5.83855 2.96014,-7.58163 1.86373,-2.80799 4.72608,-4.60595 8.2443,-5.17861 1.6138,-0.26268 10.39567,-0.28802 10.30061,-0.0297 -0.0337,0.0917 -0.28393,0.83811 -0.55598,1.65876 l -0.49466,1.49209 -4.55831,0.0431 c -4.39665,0.0416 -4.58547,0.054 -5.32372,0.35036 -2.56066,1.02794 -4.34505,3.80682 -5.4956,8.55848 -0.75997,3.1386 -0.51186,4.60919 0.90552,5.36704 0.5419,0.28974 0.67838,0.29797 5.60023,0.33772 4.30361,0.0348 5.03407,0.0687 4.97178,0.23104 -0.0402,0.10466 -0.29553,0.94134 -0.56748,1.85927 l -0.49445,1.66898 -4.61066,-0.0166 c -2.53586,-0.009 -4.91206,-0.0609 -5.28045,-0.11509 z"
     id="path1495" />
  <path
     style="fill:#ffffff;stroke-width:0.133334"
     d="m 188.32293,133.50108 c 0.21892,-0.70248 2.21194,-9.10746 2.21194,-9.32819 0,-0.1442 -0.98158,-2.83688 -2.18129,-5.98375 -1.19971,-3.14686 -2.22377,-5.85657 -2.27567,-6.02157 l -0.0944,-0.3 h 2.52406 2.52406 l 1.57373,4.1667 c 0.86555,2.29168 1.61624,4.21615 1.66819,4.2766 0.052,0.0605 1.88476,-1.81457 4.0729,-4.1667 l 3.97844,-4.2766 h 2.52118 2.52119 l -4.71618,4.81287 c -2.59389,2.64708 -5.28936,5.4221 -5.98993,6.16671 l -1.27376,1.35385 -1.1599,4.2667 c -0.63794,2.34669 -1.22258,4.4917 -1.29919,4.76671 l -0.1393,0.5 h -2.2694 c -2.10015,0 -2.26398,-0.0174 -2.19669,-0.23333 z"
     id="path1534" />
  <path
     style="fill:#ffffff;stroke-width:0.133334"
     d="m 208.87354,133.85276 c -3.8702,-0.56384 -5.79881,-2.60422 -5.80366,-6.14 -0.002,-1.37828 0.22204,-2.62555 0.85512,-4.763 1.71797,-5.80034 4.60615,-8.96131 9.36048,-10.24458 1.29751,-0.35022 1.38884,-0.356 6.41629,-0.40624 4.16902,-0.0417 5.09941,-0.0187 5.0966,0.1255 -0.002,0.0971 -0.17059,0.83647 -0.37488,1.64315 l -0.37146,1.46667 -4.52515,0.07 c -4.96311,0.0768 -5.14632,0.10384 -6.49586,0.95906 -1.92404,1.21928 -3.66255,4.56572 -4.50459,8.67084 -0.51411,2.50643 -0.22867,3.92599 0.92594,4.60475 l 0.61599,0.36212 4.91294,0.0395 4.91294,0.0395 -0.088,0.36048 c -0.0484,0.19827 -0.29753,1.03549 -0.55365,1.8605 l -0.46568,1.50001 -4.55929,-0.0163 c -2.50761,-0.009 -4.91696,-0.0684 -5.35411,-0.13206 z"
     id="path1573" />
  <path
     style="fill:#ffffff;stroke-width:0.133334"
     d="m 229.00184,133.91152 c -2.89931,-0.35951 -4.17585,-1.04773 -4.87365,-2.6275 -0.3959,-0.8963 -0.47648,-2.37804 -0.21117,-3.88299 0.18529,-1.05101 4.22983,-15.32292 4.38691,-15.48 0.0331,-0.033 1.04994,-0.0436 2.25976,-0.0234 l 2.19968,0.0366 -1.58537,5.53338 c -2.26556,7.90745 -2.64292,9.41696 -2.64233,10.56957 10e-4,2.22985 1.01634,2.62745 6.71382,2.62953 2.16826,8e-4 2.76744,0.0377 2.71962,0.16768 -0.0337,0.0917 -0.28512,0.84167 -0.55863,1.66668 l -0.49729,1.50001 -3.75567,-0.02 c -2.06562,-0.011 -3.93567,-0.0423 -4.15568,-0.0696 z"
     id="path1612" />
  <path
     style="fill:#ffffff;stroke-width:0.133334"
     d="m 245.93531,133.85319 c -1.32427,-0.19097 -2.52892,-0.62055 -3.41863,-1.21909 -0.98037,-0.65952 -1.56944,-1.38426 -2.0012,-2.46208 -0.2742,-0.6845 -0.30752,-0.98035 -0.29709,-2.63766 0.0109,-1.72681 0.0484,-1.99656 0.501,-3.60003 0.89848,-3.18318 1.8038,-5.19311 3.13454,-6.95915 1.63393,-2.16839 3.67936,-3.50637 6.54656,-4.28231 1.24013,-0.33561 1.38224,-0.34433 6.41967,-0.39386 l 5.15147,-0.0506 -0.41167,1.66721 -0.41167,1.6672 -4.60646,0.0458 c -4.47117,0.0445 -4.62997,0.0551 -5.40647,0.36061 -1.87446,0.73754 -3.3029,2.23598 -4.07923,4.27911 l -0.25306,0.66599 h 6.39951 c 3.51973,0 6.39951,0.0363 6.39951,0.0806 0,0.0443 -0.2507,0.88431 -0.5571,1.86668 l -0.55711,1.78613 h -6.4335 -6.4335 l -0.16481,0.76667 c -0.21263,0.98906 -0.21472,2.36677 -0.005,2.99123 0.0909,0.27017 0.3984,0.70178 0.68328,0.95915 0.90852,0.82079 1.35641,0.883 6.35809,0.883 3.22922,0 4.4425,0.0414 4.4425,0.15157 0,0.0834 -0.24258,0.92338 -0.53907,1.86668 l -0.53907,1.71511 -4.56097,-0.0163 c -2.50853,-0.009 -4.92097,-0.0682 -5.36098,-0.13163 z"
     id="path1651" />
  <path
     style="fill:#ffffff;stroke-width:0.133334"
     d="m 272.48862,133.63441 c 0.0503,-0.20167 1.41807,-5.16671 3.03942,-11.03342 l 2.94791,-10.66676 5.19652,-0.0367 c 9.0235,-0.0638 10.82248,0.25268 11.90501,2.09404 0.32849,0.55876 0.35784,0.72562 0.35349,2.00937 -0.004,1.15164 -0.0712,1.61291 -0.37919,2.60003 -0.96461,3.09148 -2.65474,4.99789 -5.1391,5.79672 -0.51902,0.16689 -0.94368,0.33255 -0.94368,0.36814 0,0.0356 0.60084,1.98595 1.33519,4.33415 0.73436,2.34819 1.37087,4.41156 1.41447,4.58527 l 0.0793,0.31584 h -2.52856 -2.52856 l -1.31726,-4.40004 -1.31727,-4.40003 h -2.68579 -2.6858 l -0.13016,0.5 c -0.0716,0.275 -0.59832,2.25502 -1.17052,4.40004 l -1.04038,3.90003 h -2.24826 -2.24826 z m 16.28832,-12.35406 c 1.42223,-0.45755 2.2298,-1.65873 2.38396,-3.5459 0.0644,-0.78831 0.0423,-0.89286 -0.24387,-1.15406 -0.58791,-0.53661 -1.20058,-0.61647 -5.20177,-0.67804 l -3.82041,-0.0588 -0.2028,0.71203 c -0.32352,1.13591 -1.28979,4.86022 -1.28979,4.97127 0,0.0556 1.72501,0.0742 3.83336,0.0412 3.13018,-0.0489 3.96323,-0.10172 4.54132,-0.28769 z"
     id="path1690" />
  <path
     style="fill:#ffffff;stroke-width:0.133334"
     d="m 301.6691,133.85554 c -2.77839,-0.39842 -4.66212,-1.72161 -5.4352,-3.81786 -0.2303,-0.62445 -0.28451,-1.07238 -0.28684,-2.36998 -0.002,-1.37921 0.0581,-1.83922 0.43862,-3.33337 1.06333,-4.17481 2.37141,-6.70229 4.54203,-8.77608 1.52715,-1.45904 3.11399,-2.31555 5.40809,-2.9191 0.97423,-0.2563 1.51552,-0.28551 6.24584,-0.33704 4.97299,-0.0542 5.17624,-0.0467 5.10559,0.18785 -0.0405,0.13436 -0.23348,0.88929 -0.42891,1.67763 l -0.35535,1.43334 -4.21691,0.002 c -4.6803,0.002 -5.31711,0.0805 -6.7147,0.82538 -1.31962,0.70334 -2.5989,2.31279 -3.29021,4.13936 l -0.13878,0.36667 h 6.41121 6.4112 l -0.0895,0.36667 c -0.0492,0.20167 -0.29908,1.04167 -0.5552,1.86668 l -0.46568,1.50001 h -6.4409 -6.44091 l -0.15174,0.75558 c -0.37027,1.84371 -0.0904,3.38715 0.73152,4.03372 0.92112,0.72464 0.97569,0.7319 6.06892,0.80718 l 4.75216,0.0702 -0.55619,1.80002 -0.55618,1.80001 -4.59598,0.0179 c -2.52779,0.01 -4.95598,-0.0337 -5.39598,-0.0968 z"
     id="path1729" />
  <path
     style="fill:#ffffff;stroke-width:0.133334"
     d="m 321.82936,133.7927 c -3.55603,-0.55332 -4.89477,-2.63232 -4.17268,-6.47996 0.20491,-1.09183 4.22493,-15.2353 4.37222,-15.38259 0.0381,-0.0381 1.05906,-0.0527 2.26888,-0.0326 l 2.19968,0.0366 -1.58755,5.53338 c -2.24307,7.81822 -2.64075,9.4104 -2.64015,10.57044 10e-4,2.2251 0.98103,2.61761 6.55453,2.62555 l 2.88834,0.004 -0.55172,1.66668 -0.55172,1.66668 -3.80329,-0.0129 c -2.49654,-0.008 -4.20641,-0.0756 -4.97654,-0.19547 z"
     id="path1768" />
  <path
     style="fill:#ffffff;stroke-width:0.133334"
     d=""
     id="path1807" />
  <path
     style="fill:#ffffff;stroke-width:0.133334"
     d="m 333.2027,133.6374 c 0.0669,-0.20332 1.41751,-5.0797 3.00143,-10.83641 1.58393,-5.75671 2.91063,-10.57175 2.94822,-10.70009 0.0618,-0.21101 0.29714,-0.23333 2.45939,-0.23333 1.31507,0 2.3883,0.045 2.38496,0.1 -0.003,0.055 -1.36851,5.02004 -3.03371,11.03342 l -3.02765,10.93342 -2.4271,0.0363 -2.4271,0.0363 z"
     id="path1846" />
</svg>
