<?xml version="1.0" encoding="UTF-8" standalone="no"?>
<svg
   width="398"
   height="305"
   viewBox="0 0 398 305"
   version="1.1"
   id="svg20"
   sodipodi:docname="arizona_state_university.svg"
   inkscape:version="1.1.1 (3bf5ae0d25, 2021-09-20)"
   xmlns:inkscape="http://www.inkscape.org/namespaces/inkscape"
   xmlns:sodipodi="http://sodipodi.sourceforge.net/DTD/sodipodi-0.dtd"
   xmlns="http://www.w3.org/2000/svg"
   xmlns:svg="http://www.w3.org/2000/svg">
  <defs
     id="defs24" />
  <sodipodi:namedview
     id="namedview22"
     pagecolor="#ffffff"
     bordercolor="#666666"
     borderopacity="1.0"
     inkscape:pageshadow="2"
     inkscape:pageopacity="0.0"
     inkscape:pagecheckerboard="0"
     showgrid="false"
     inkscape:zoom="2.6582915"
     inkscape:cx="198.81191"
     inkscape:cy="92.352552"
     inkscape:window-width="1920"
     inkscape:window-height="1017"
     inkscape:window-x="-8"
     inkscape:window-y="-8"
     inkscape:window-maximized="1"
     inkscape:current-layer="svg20" />
  <title
     id="title2">asu_university_vert_rgb</title>
  <g
     transform="translate(-1 -1)"
     id="g18">
    <g
       transform="translate(0 179.31)"
       id="g14">
      <path
         d="M30.62 1.655l17.104 46.62H35.31l-2.207-7.447H16l-2.207 7.448H1.38l17.38-46.62H30.62zm-6.344 11.31c-.552 2.483-1.38 4.966-1.931 7.173-1.104 3.586-2.759 9.103-3.862 12.414h11.862l-6.07-19.586zm36.138 4.414c2.207-1.93 4.69-3.31 9.93-3.862v9.104l-3.31.551c-4.965.828-6.344 1.656-6.344 6.07v19.586H50.483V13.793h9.93v3.586zM73.93 1.655h9.931v8h-9.931v-8zm0 12.138h9.931v34.759h-9.931V13.793z"
         id="path4" />
      <path
         d="M90.2068966 13.7931034L119.724138 13.7931034 119.724138 21.5172414 101.241379 40.2758621 119.724138 40.2758621 119.724138 48.2758621 88.2758621 48.2758621 88.2758621 40.5517241 107.034483 21.5172414 90.4827586 21.5172414 90.4827586 13.7931034z"
         id="path6" />
      <path
         d="M158.897 31.172c0 8.828-4.966 18.207-18.483 18.207-9.655 0-18.483-5.517-18.483-18.207 0-10.482 6.62-19.034 19.862-18.206 13.793.551 17.104 11.862 17.104 18.206zm-25.38-6.896c-1.38 1.93-1.655 4.414-1.655 6.62 0 5.518 2.759 10.207 8.276 10.207 5.517 0 8.276-4.413 8.276-9.93 0-3.863-.828-6.897-2.759-8.552-2.207-1.931-4.414-1.931-6.069-1.931-2.758.551-4.69 1.379-6.069 3.586zm38.897-7.173c1.103-1.103 1.655-1.93 3.31-2.758 1.655-.552 3.862-1.38 6.345-1.38 1.931 0 4.414.276 6.069 1.38 3.586 1.93 4.69 4.965 4.69 10.483v23.724H182.62V28.966c0-3.035 0-4.138-.552-5.242-.828-1.93-2.483-2.758-4.69-2.758-5.241 0-5.241 4.413-5.241 8.551v18.759H161.93V14.069h10.207l.276 3.034zm25.655 6.621c.276-2.483.552-5.241 3.586-7.724 3.31-2.483 7.173-3.034 11.31-3.034 4.138 0 14.621 1.103 14.621 9.93v20.138c0 3.587.276 4.138 1.104 5.518h-9.931v-3.31c-2.483 1.93-5.518 4.137-10.483 4.137-8 0-11.31-5.793-11.31-10.482 0-5.518 4.413-8.828 7.172-9.931 2.759-1.104 9.38-2.483 13.517-3.31v-1.932c0-1.655-.276-4.138-3.862-4.138-4.414 0-4.965 2.759-5.241 4.138h-10.483zm12.69 10.483c-1.656.552-4.414 1.655-4.414 4.414 0 1.655 1.38 3.586 3.862 3.586 1.38 0 2.483-.552 3.586-1.104 3.31-2.206 3.586-5.24 3.586-8.827l-6.62 1.93zm39.172.276c1.103 1.38 2.207 2.483 4.414 3.586 3.034 1.655 6.345 2.207 9.103 2.207 4.69 0 8.552-2.207 8.552-5.517 0-3.587-4.69-4.414-8.276-4.69-2.483-.276-5.241-.552-7.724-1.103-2.759-.552-12.69-2.76-12.69-12.69C243.31 4.138 254.07.552 262.07.552c10.759 0 16.552 5.241 20.69 8.827l-8.552 6.07c-1.38-1.38-2.759-2.76-4.69-3.863-1.655-.827-4.69-1.93-7.724-1.93-4.69 0-6.896 2.758-6.896 4.965 0 3.586 3.862 4.138 6.069 4.413 4.965.552 11.586 1.932 14.344 2.76 5.242 1.93 8 6.068 8 11.585 0 3.31-1.379 7.173-3.586 9.931-4.138 4.966-11.034 6.345-17.655 6.345-13.241 0-18.483-6.069-21.241-9.38l9.103-5.792zm38.897-30.62h10.206V14.62h6.621v6.345h-6.62v15.448c0 2.207 0 3.862 2.758 3.862h3.586v8c-2.207.276-3.586.552-5.241.552-3.586 0-7.448-.276-9.655-3.31-1.38-1.932-1.38-4.415-1.38-7.725V21.241h-4.965v-6.344h4.965V3.862h-.275zm19.862 19.861c.276-2.483.551-5.241 3.586-7.724 3.31-2.483 7.172-3.034 11.31-3.034 4.138 0 14.62 1.103 14.62 9.93v20.138c0 3.587.277 4.138 1.104 5.518h-9.93v-3.31c-2.483 1.93-5.518 4.137-10.483 4.137-8 0-11.31-5.793-11.31-10.482 0-5.518 4.413-8.828 7.172-9.931 2.758-1.104 9.379-2.483 13.517-3.31v-1.932c0-1.655-.276-4.138-3.862-4.138-4.414 0-4.966 2.759-5.242 4.138H308.69zm12.965 10.483c-1.655.552-4.414 1.655-4.414 4.414 0 1.655 1.38 3.586 3.862 3.586 1.38 0 2.483-.552 3.587-1.104 3.31-2.206 3.586-5.24 3.586-8.827l-6.62 1.93zm23.448-30.345h10.207v10.759h6.621v6.345h-6.62v15.448c0 2.207 0 3.862 2.758 3.862h3.586v8c-2.207.276-3.586.552-5.241.552-3.586 0-7.448-.276-9.655-3.31-1.38-1.932-1.38-4.415-1.38-7.725V21.241h-4.965v-6.344h4.965V3.862h-.276zm52.966 35.862c-1.103 1.655-2.483 3.586-4.138 5.242-3.034 2.758-7.448 4.965-12.965 4.965-10.207 0-17.38-6.62-17.38-17.931 0-8.276 4.138-19.034 17.655-19.034 1.931 0 8 .275 12.414 4.965 4.414 4.966 4.69 11.586 4.966 15.448h-24.828c0 4.414 2.483 8.552 8 8.552 5.517 0 7.448-3.586 8.828-6.069l7.448 3.862zM387.862 26.76c-.276-1.38-.552-3.31-1.931-4.966-1.38-1.38-3.31-1.93-4.965-1.93-2.483 0-4.138 1.103-5.242 2.206-1.38 1.655-1.655 3.034-1.93 4.69h14.068z"
         id="path8" />
      <g
         id="g12">
        <path
           d="M41.103 67.862V94.07c0 4.414 0 9.103-2.758 13.241-4.966 8-15.448 8.552-17.38 8.552-3.586 0-7.724-.828-10.758-2.483-9.104-4.69-9.104-12.965-8.828-19.31V67.862h11.862v29.241c0 2.483 0 4.414.828 5.794 1.38 2.482 4.69 3.31 7.448 3.31 8 0 8-5.517 8-9.104V68.138l11.586-.276zM56.552 83.31c1.103-1.103 1.655-1.93 3.31-2.758 1.655-.552 3.862-1.38 6.345-1.38 1.93 0 4.414.276 6.069 1.38 3.586 1.93 4.69 4.965 4.69 10.482v23.725H66.759V95.172c0-3.034 0-4.138-.552-5.241-.828-1.931-2.483-2.759-4.69-2.759-5.241 0-5.241 4.414-5.241 8.552v18.759H46.069V80h10.207v3.31h.276zm25.93-15.448h9.932v8h-9.931v-8zm0 12.138h9.932v34.759h-9.931V80zm12.966 0h10.759c4.138 15.448 4.965 18.483 6.069 25.103 1.38-7.724 1.655-8.551 3.586-16.551L118.07 80h10.483l-11.31 34.483h-10.76L95.449 80zm67.586 25.931c-1.103 1.655-2.482 3.586-4.137 5.241-3.035 2.759-7.449 4.966-12.966 4.966-10.207 0-17.38-6.62-17.38-17.931 0-8.276 4.139-19.035 17.656-19.035 1.93 0 8 .276 12.414 4.966 4.413 4.965 4.69 11.586 4.965 15.448H138.76c0 4.414 2.482 8.552 8 8.552 5.517 0 7.448-3.586 8.827-6.069l7.448 3.862zm-10.206-12.965c-.276-1.38-.552-3.31-1.931-4.966-1.38-1.38-3.31-1.931-4.966-1.931-2.483 0-4.138 1.103-5.241 2.207-1.38 1.655-1.656 3.034-1.931 4.69h14.069zm24.551-9.38c2.207-1.93 4.69-3.31 9.931-3.862v9.104l-3.31.551c-4.966.828-6.345 1.655-6.345 6.07v19.585h-10.207V80h9.931v3.586zm16.276 19.31c2.759 2.76 6.345 4.69 9.931 4.69 2.483 0 6.07-.827 6.07-3.31 0-1.104-.828-1.655-1.38-1.931-1.655-.828-3.862-1.104-5.793-1.38-1.655-.275-3.035-.551-4.69-1.103-2.207-.552-4.138-1.38-5.793-3.034-1.655-1.656-2.483-3.862-2.483-6.621 0-5.793 4.966-11.586 14.62-11.586 8.277 0 12.966 3.586 15.45 5.241l-6.346 5.793c-3.31-2.483-6.344-3.31-8.551-3.31-3.862 0-4.966 1.655-4.966 2.483 0 1.93 2.207 2.482 5.517 3.034 6.897 1.38 14.897 3.035 14.897 11.31 0 8.276-8.276 12.138-16.276 12.138-9.655 0-14.62-4.69-16.828-6.62l6.621-5.793zm29.793-35.034h9.931v8h-9.93v-8zm0 12.138h9.931v34.759h-9.93V80zm18.759-9.931h10.207v10.759h6.62v6.344h-6.62v15.449c0 2.207 0 3.862 2.758 3.862h3.587v8c-2.207.276-3.587.551-5.242.551-3.586 0-7.448-.275-9.655-3.31-1.38-1.93-1.38-4.414-1.38-7.724V87.448h-5.24v-6.345h4.965V70.07zM294.345 80l-12.138 37.241c-.828 2.207-1.655 4.414-3.31 6.345-2.483 2.483-4.69 2.759-7.449 2.759H264v-8h3.586c1.655 0 4.138 0 4.138-2.483 0-.828-.276-1.655-.552-2.483L260.966 80h10.758l5.793 24.828L283.31 80h11.035z"
           id="path10" />
      </g>
    </g>
    <path
       d="M335.724 138.207c-4.965-5.241-4.69-10.759-4.69-10.759V1.103H283.31V102.07c-.551 9.655-9.93 11.862-15.172 11.862-7.448-.276-11.586-4.414-11.586-11.586V1.103H209.93h-32.828c-25.379 0-49.379 3.863-57.655 25.104l-4.69-18.759c-1.103-3.862-5.24-6.345-9.103-6.345H22.621c-1.104 0-1.655.276-1.104 1.104 0 0 2.207 2.207 6.345 6.896 5.793 6.621 3.586 15.173 3.586 15.173L1.103 146.206h44.414l6.345-26.758h42.759l6.62 26.759h58.207c24 0 43.31-2.483 52.966-17.38 7.172 13.518 22.62 20.139 49.93 17.656 9.38-.828 18.76-5.242 22.897-12.414l1.931 5.793c1.656 3.586 4.966 6.069 9.38 6.069h44.69c1.103.276 1.655 0 .827-.828 0 0-2.483-2.758-6.345-6.896zM110.621 27.31l8 4.69c-.276 1.38-.552 3.034-.828 4.414l-8.276-7.724c-.827-.828.276-1.931 1.104-1.38zm-8 9.931l14.896 6.07c0 1.655 0 4.137.276 6.068l-16-10.482c-.827-.552-.276-1.931.828-1.656zm-6.07 11.587l22.07 4.965c.551 2.759 1.655 5.517 2.758 7.724L96 50.483c-.828-.552-.552-1.931.552-1.655zM58.484 92.966l14.62-59.587L88 92.966H58.483zm122.207 19.862c-4.138 3.862-12.138 5.793-20.69 4.965-4.966-.552-9.931-3.034-9.931-3.034l-17.931 22.069c-.828.827-2.207 0-1.655-1.104l12.138-24.552c.276-.275-.276-.551-.552-.275l-21.793 19.034c-.828.828-1.931-.276-1.38-1.38l16.828-22.344c.276-.276 0-.552-.276-.276l-25.103 15.172c-.828.552-1.931-.827-1.104-1.379l20.966-19.586c.276-.276 0-.552-.276-.552l-27.862 11.31c-1.103.276-1.655-1.103-.828-1.655l24.552-16c.276-.275 0-.551-.276-.551l-28.965 6.896c-1.104.276-1.38-1.103-.552-1.655l27.31-11.862c.276 0 .276-.552 0-.552l-30.344 1.931c-1.104 0-1.38-1.379-.276-1.655l29.241-7.448c.276 0 .276-.552 0-.552l-30.345-2.759c-1.103 0-1.103-1.655 0-1.655l30.345-2.758c.276 0 .276-.276 0-.552L92.69 62.621c-1.104-.276-.828-1.655.276-1.655l28.965 1.655c7.448 13.517 23.172 19.034 36.966 24C172.414 91.31 184 95.172 184 105.655c0 2.759-1.103 5.242-3.31 7.173zm41.655 17.103l-6.897-6.069s1.104-2.483 1.655-4.138l6.621 8.828c.552.827-.552 1.93-1.38 1.379zm9.93-8.828l-13.792-8.275s.551-4.138.551-6.345l14.345 13.241c.828.828-.276 1.931-1.103 1.38zm8-10.206l-20.965-8.552s0-4.966-.551-7.724l22.344 14.62c.828.552.276 1.931-.827 1.656zm11.035-36.414l-30.344 2.758c-.276 0-.276.276 0 .552l29.24 7.448c1.104.276.828 1.656-.275 1.656l-30.345-1.931c-.276 0-.276.275 0 .551l27.31 11.862c1.104.552.552 1.931-.551 1.655l-27.862-5.793s-1.104-12.413-15.724-22.62c-7.449-5.242-16.828-8.828-24.828-11.862-6.345-2.483-12.138-4.69-16.276-7.173-4.69-3.034-6.896-6.345-6.896-10.207 0-2.758.827-5.241 2.758-7.172 3.31-3.31 9.104-4.69 17.104-4.69 8.551 0 17.655 3.862 17.655 3.862l18.207-22.62c.827-.828 2.207 0 1.655 1.103L199.724 36.69c0 .276.276.551.276.276l22.069-19.035c.828-.828 1.931.276 1.38 1.38l-17.104 22.62c-.276.276 0 .552.276.276L232 26.759c.828-.552 1.931.827 1.103 1.379l-20.965 19.586c-.276.276 0 .552.276.276l27.862-11.31c1.103-.276 1.655 1.103.827 1.655l-24.551 16c-.276.276 0 .552.276.552l29.517-6.621c1.103-.276 1.38 1.103.552 1.655l-27.31 11.862c-.277 0-.277.552 0 .552l30.344-1.931c1.103 0 1.38 1.38.276 1.655l-29.241 7.448c-.276 0-.276.552 0 .552l30.344 2.759c1.104 0 1.104 1.655 0 1.655z"
       id="path16" />
  </g>
  <path
     style="fill:#ffffff;stroke-width:0.376181"
     d="m 246.21078,145.71318 c -15.89664,-0.83802 -27.40677,-6.34636 -33.33682,-15.95379 l -1.42028,-2.30104 -0.73513,1.06808 c -1.38034,2.00554 -7.23929,7.46073 -9.36116,8.71605 -5.46533,3.23337 -12.77467,5.50187 -21.35455,6.62753 -7.3358,0.96243 -20.78062,1.30871 -51.36473,1.32292 l -28.22956,0.0131 -3.306925,-13.54253 -3.306932,-13.54254 H 72.261143 50.72759 l -3.186279,13.44849 -3.186284,13.44849 -22.022432,0.097 -22.02243394,0.097 L 15.530826,84.361679 30.751491,23.511342 30.779153,19.373346 C 30.821384,13.055842 29.81722,10.899933 23.793178,4.3746817 21.98297,2.4138614 20.50189,0.70994713 20.50189,0.5882057 c 0,-0.12174142 19.51429,-0.17692977 43.365087,-0.12264076 l 43.365093,0.0987073 1.86726,0.96099396 c 3.38265,1.7408932 3.90882,2.8275304 6.57138,13.5710988 1.30083,5.248937 2.49539,9.688464 2.65457,9.865616 0.15918,0.177151 0.63149,-0.451215 1.04958,-1.39637 1.31716,-2.977664 4.20896,-7.099664 6.79511,-9.685812 6.70066,-6.7006577 15.92067,-10.4558994 31.07389,-12.6561596 3.57024,-0.51840237 10.5756,-0.62017657 51.0577,-0.74176851 l 46.91972,-0.14092788 0.10297,52.21279799 0.10297,52.212799 0.89883,1.98913 c 1.84451,4.08193 5.68885,6.2348 11.13898,6.23793 7.03782,0.004 13.05638,-3.63298 14.4774,-8.74871 0.24409,-0.87873 0.37831,-19.478921 0.37967,-52.613983 l 0.002,-51.2547255 h 23.69943 23.69943 V 63.523324 c 0,40.724666 0.13428,63.866646 0.37817,65.173436 0.66854,3.58217 2.37197,6.39144 6.7909,11.19942 2.26401,2.46334 4.11638,4.58115 4.11638,4.70624 0,0.1251 -10.46856,0.22745 -23.26347,0.22745 -25.16929,0 -25.43104,-0.019 -28.07604,-2.03643 -1.8961,-1.44622 -2.88863,-3.05157 -4.17564,-6.7538 l -1.15956,-3.3356 -1.3974,1.90363 c -4.10804,5.59627 -12.0182,9.56648 -21.02782,10.55414 -4.08814,0.44815 -12.23068,0.73415 -15.6978,0.55137 z m -105.98089,-20.63644 8.94256,-11.05995 1.77861,0.76899 c 5.12161,2.21431 12.96531,2.87733 19.19287,1.62234 8.25852,-1.66428 12.85588,-5.90847 12.86468,-11.87642 0.0116,-7.857485 -5.24617,-12.134401 -22.37912,-18.204255 -3.9311,-1.392706 -9.0824,-3.278327 -11.44735,-4.190266 -12.78564,-4.930231 -21.16207,-10.64196 -26.25705,-17.904192 -1.78724,-2.547464 -2.18956,-2.915407 -3.18785,-2.915407 -0.62836,0 -7.14857,-0.350168 -14.48935,-0.77815 -7.340785,-0.427985 -13.583848,-0.687219 -13.873474,-0.57608 -0.811107,0.311252 -0.624002,1.328048 0.319818,1.738014 0.465525,0.202209 7.185398,1.98107 14.933046,3.953024 7.74765,1.971951 14.13435,3.633078 14.19266,3.69139 0.0583,0.05831 -6.02675,0.655045 -13.52236,1.326074 -18.972987,1.698512 -17.578298,1.500227 -17.578298,2.499158 0,1.049136 -0.810773,0.927486 16.646028,2.49754 7.60357,0.683857 13.82467,1.336753 13.82467,1.450876 0,0.114125 -6.46308,1.84965 -14.3624,3.856721 -7.899323,2.007075 -14.523784,3.810606 -14.721028,4.007849 -0.197247,0.197247 -0.256822,0.623927 -0.132393,0.948184 0.295856,0.770984 0.625142,0.764672 17.357961,-0.332676 7.65082,-0.501743 13.93968,-0.880385 13.97525,-0.84142 0.0356,0.03896 -6.17737,2.772487 -13.80652,6.074503 -7.62916,3.302012 -13.966558,6.252177 -14.083114,6.555918 -0.116556,0.30374 0.0059,0.766706 0.272129,1.028818 0.391331,0.385278 3.186122,-0.169338 14.590855,-2.895499 7.75874,-1.854631 14.30118,-3.326429 14.53875,-3.270664 0.23757,0.05577 -5.04883,3.656307 -11.74755,8.0012 -6.69872,4.3449 -12.274011,8.14147 -12.389528,8.43683 -0.115522,0.29536 0.04045,0.7875 0.346598,1.09365 0.4914,0.4914 2.19825,-0.11126 14.56286,-5.14189 7.70342,-3.13419 14.05914,-5.645597 14.12383,-5.580909 0.0647,0.06469 -4.57796,4.500899 -10.31699,9.858249 -10.48681,9.78936 -11.77242,11.31185 -9.49415,11.24346 0.51978,-0.0156 6.23826,-3.24331 12.78437,-7.21594 6.51416,-3.95324 11.90228,-7.12936 11.97359,-7.05804 0.0713,0.0713 -3.47571,4.92667 -7.88228,10.78966 -7.96249,10.59419 -8.97594,12.33169 -7.3795,12.65174 0.42601,0.0854 4.43505,-3.17585 11.43789,-9.30445 5.9301,-5.18976 10.87656,-9.34137 10.99214,-9.22579 0.11559,0.11559 -2.47764,5.59415 -5.76272,12.17458 -3.77336,7.55854 -5.88527,12.1927 -5.735,12.5843 0.13083,0.34094 0.62407,0.61066 1.09609,0.59938 0.66147,-0.0158 2.90827,-2.55596 9.80077,-11.08045 z m 82.06259,4.10135 c 1.15308,-0.44248 0.56218,-1.80231 -2.69654,-6.2056 -1.81038,-2.44623 -3.37882,-4.45391 -3.48543,-4.46151 -0.10661,-0.008 -0.52682,0.87491 -0.9338,1.96114 -0.40698,1.08622 -0.79403,2.08585 -0.86011,2.2214 -0.0951,0.19516 6.99275,6.71291 7.30014,6.71291 0.0444,0 0.34847,-0.10275 0.67574,-0.22834 z m 10.3067,-9.75728 c -0.1755,-1.4114 -14.29746,-14.35995 -14.64288,-13.42618 -0.13357,0.36108 -0.30598,1.87049 -0.38313,3.35426 l -0.14028,2.69775 6.77127,4.13192 c 7.12352,4.34687 8.60345,4.91844 8.39502,3.24225 z m 7.78078,-10.31815 c 0,-0.79079 -1.58602,-1.96231 -11.28402,-8.33496 -6.20621,-4.078163 -11.30502,-7.385987 -11.33069,-7.350724 -0.0257,0.03525 0.0376,1.869934 0.14056,4.07704 l 0.18721,4.012924 10.5792,4.33853 c 5.81856,2.38619 10.83312,4.30226 11.14347,4.25792 0.3258,-0.0466 0.56427,-0.46946 0.56427,-1.00073 z m 6.1302,-11.885728 c 0.0983,-0.68784 -1.49546,-1.475139 -13.7066,-6.770744 -7.59984,-3.29582 -13.55863,-6.042324 -13.24176,-6.103352 0.31688,-0.06102 7.14347,0.314898 15.1702,0.835382 8.02673,0.520485 14.73952,0.85643 14.91732,0.746547 0.1778,-0.109886 0.32327,-0.523637 0.32327,-0.919443 0,-0.547074 -0.47361,-0.852401 -1.97495,-1.273205 -2.90441,-0.814065 -27.29424,-6.991096 -27.60414,-6.991096 -0.14555,0 -0.18936,-0.07528 -0.0974,-0.167284 0.092,-0.09201 6.93381,-0.782616 15.20401,-1.534685 11.3626,-1.033284 15.17459,-1.503571 15.60098,-1.924707 1.18669,-1.172034 -0.43836,-1.473645 -14.73917,-2.73561 -7.72129,-0.681359 -14.49997,-1.348359 -15.06375,-1.482223 -0.75452,-0.17916 2.86916,-1.236181 13.73063,-4.005208 13.34166,-3.401327 14.76658,-3.838337 14.86959,-4.560342 0.0627,-0.439192 -0.10661,-0.87498 -0.37618,-0.968416 -0.26956,-0.09344 -6.41497,0.22384 -13.65647,0.705059 -7.24149,0.481218 -13.94686,0.832365 -14.90081,0.780324 -1.63862,-0.08939 -0.98379,-0.420533 11.84972,-5.99236 11.09882,-4.818689 13.60621,-6.040658 13.70461,-6.678903 0.0662,-0.42964 -0.10836,-0.868957 -0.38799,-0.976259 -0.27962,-0.107305 -6.9358,1.250725 -14.7915,3.017841 -7.85571,1.767116 -14.48959,3.167599 -14.74195,3.112183 -0.25237,-0.05541 4.74144,-3.474133 11.09735,-7.597154 6.35591,-4.12302 11.85245,-7.746494 12.21453,-8.052161 0.77545,-0.654647 0.86864,-1.886781 0.16316,-2.157497 -0.27234,-0.104504 -6.56293,2.271796 -13.97909,5.280669 -7.41616,3.008872 -13.55314,5.401469 -13.63773,5.316881 -0.0846,-0.08459 4.43358,-4.440604 10.04038,-9.680033 6.09484,-5.695496 10.15031,-9.756748 10.08509,-10.099471 -0.27181,-1.428354 -2.00405,-0.601161 -13.80219,6.590962 -6.6672,4.064307 -12.19317,7.318655 -12.27994,7.231882 -0.0868,-0.08677 3.4109,-4.881993 7.7726,-10.65605 4.3617,-5.774057 8.08392,-10.785192 8.27159,-11.135856 0.45123,-0.843131 0.0478,-1.820618 -0.75151,-1.820618 -0.35131,0 -5.44528,4.141984 -11.31993,9.204408 -5.87465,5.062425 -10.74028,9.145316 -10.8125,9.073091 -0.0722,-0.07223 2.58028,-5.567625 5.89445,-12.212 3.41372,-6.843949 5.9316,-12.32609 5.80853,-12.6468151 -0.11949,-0.3113725 -0.59616,-0.566132 -1.05928,-0.566132 -0.65111,0 -2.86491,2.5143921 -9.76387,11.0896151 -4.90701,6.099287 -9.05964,11.174779 -9.22806,11.278869 -0.16842,0.104091 -1.51914,-0.223283 -3.00159,-0.727498 -5.49635,-1.869431 -9.63018,-2.561565 -15.26637,-2.556079 -8.39155,0.0082 -12.91824,1.23983 -16.34821,4.448164 -2.38121,2.227347 -3.19516,4.469503 -2.93623,8.088345 0.43542,6.085653 4.92616,9.751831 18.53208,15.129334 2.89659,1.144829 7.72112,3.048955 10.72117,4.231383 11.45022,4.512971 19.02659,9.012063 24.65885,14.643225 4.77483,4.773898 8.0475,10.261671 9.23315,15.482599 l 0.43643,1.921753 13.58862,2.849669 c 7.47374,1.567315 14.01182,2.818543 14.52907,2.780512 0.63549,-0.04673 0.97654,-0.321553 1.05175,-0.847496 z M 87.086011,91.786515 c 0,-0.859838 -14.784334,-59.434498 -15.000202,-59.429905 -0.195242,0.0042 -14.275835,56.778928 -14.650252,59.071736 -0.117632,0.720323 0.199128,0.736115 14.765123,0.736115 9.719107,0 14.885331,-0.131174 14.885331,-0.377946 z M 120.56616,60.422584 c 0,-0.07845 -0.41297,-1.051814 -0.91773,-2.163043 -0.50475,-1.111225 -1.11595,-2.819033 -1.35823,-3.795126 -0.25853,-1.041571 -0.69528,-1.850809 -1.05722,-1.958912 -2.59799,-0.775953 -21.364516,-4.748595 -22.002516,-4.657661 -0.519002,0.07397 -0.808914,0.384333 -0.808914,0.86597 0,0.625304 2.104675,1.672721 12.60208,6.27157 11.51574,5.044977 13.54253,5.858714 13.54253,5.437202 z m -3.88865,-18.166307 c -0.52783,-0.527835 -14.86801,-6.13336 -15.48469,-6.052912 -0.42455,0.05538 -0.79689,0.425966 -0.85456,0.85051 -0.082,0.603629 1.51691,1.813729 8.08791,6.121199 l 8.19009,5.368836 0.11001,-3.064431 c 0.0605,-1.685436 0.0386,-3.135875 -0.0488,-3.223202 z m 0.67797,-8.631504 c 0.14396,-0.960045 0.34343,-1.958376 0.44325,-2.218513 0.23496,-0.612278 -8.31109,-5.609638 -9.08514,-5.312605 -0.30878,0.11849 -0.56148,0.516991 -0.56157,0.885559 -1.5e-4,0.682263 8.26699,8.785828 8.70297,8.530764 0.1313,-0.07682 0.35652,-0.925159 0.50049,-1.885205 z"
     id="path133" />
  <path
     style="fill:#ffffff;stroke-width:0.376181"
     d="m 0.70749917,226.15766 c 0.10319606,-0.16698 3.90768133,-10.28156 8.45441153,-22.47685 4.5467303,-12.19528 8.3838773,-22.46949 8.5269923,-22.83157 0.231988,-0.58691 0.883986,-0.65831 6.011247,-0.65831 h 5.751034 l 2.11536,5.73676 c 1.163447,3.15523 4.972435,13.52373 8.464416,23.04112 l 6.34906,17.30435 -5.844491,0.10386 c -3.214473,0.0571 -5.907027,0.0413 -5.983455,-0.0351 -0.07643,-0.0764 -0.612892,-1.73135 -1.192141,-3.67759 l -1.053181,-3.53863 -8.732929,-0.101 c -6.793438,-0.0786 -8.767272,0.005 -8.887564,0.37618 -0.08505,0.26245 -0.594224,1.9584 -1.1315,3.76877 l -0.976864,3.29159 H 6.5488823 c -3.3159567,0 -5.94457915,-0.13662 -5.84138313,-0.30359 z M 29.530246,210.88597 c 0,-0.33232 -6.011533,-19.52762 -6.163063,-19.67915 -0.08933,-0.0893 -0.436137,0.8235 -0.770683,2.02852 -0.334546,1.20501 -1.61982,5.51734 -2.856163,9.58295 -1.236344,4.06561 -2.247898,7.57821 -2.247898,7.80577 0,0.28364 1.892747,0.41375 6.018903,0.41375 3.310397,0 6.018904,-0.0683 6.018904,-0.15184 z"
     id="path172" />
  <path
     style="fill:#ffffff;stroke-width:0.376181"
     d="M 17.492439,293.76099 C 10.953735,293.15377 5.2275555,289.8454 2.710365,285.2205 0.66795986,281.46793 0.56427221,280.37907 0.56427221,262.68372 V 246.39887 H 6.3950851 12.225898 v 16.87253 16.87254 l 0.860967,1.27822 c 0.473532,0.70302 1.616183,1.69983 2.539225,2.21514 1.427566,0.79697 2.155894,0.93528 4.8758,0.92595 4.022532,-0.0138 5.961484,-0.89228 7.236431,-3.27862 0.841676,-1.57537 0.852762,-1.78253 0.963714,-18.00826 l 0.112242,-16.41456 1.15737,-0.23147 c 0.636554,-0.12731 3.16759,-0.23147 5.624525,-0.23147 h 4.467155 l -0.003,14.01276 c -0.003,15.16358 -0.255898,18.87224 -1.516072,22.24035 -2.726664,7.28808 -11.626231,11.98433 -21.051807,11.10901 z"
     id="path211" />
  <path
     style="fill:#ffffff;stroke-width:0.376181"
     d="m 49.844045,209.53308 v -17.30435 h 4.702269 4.702268 v 1.91345 1.91346 l 1.597063,-1.1745 c 1.617933,-1.18984 5.633764,-2.65241 7.282827,-2.65241 0.897358,0 0.900829,0.0164 0.900829,4.26584 v 4.26584 l -2.727316,0.48256 c -1.500024,0.2654 -3.368625,0.7367 -4.152448,1.04732 -2.45841,0.97427 -2.524773,1.33224 -2.524773,13.6192 v 10.92794 h -4.890359 -4.89036 z"
     id="path250" />
  <path
     style="fill:#ffffff;stroke-width:0.376181"
     d="m 73.167297,209.53308 v -17.30435 h 4.702268 4.702269 v 17.30435 17.30435 h -4.702269 -4.702268 z"
     id="path289" />
  <path
     style="fill:#ffffff;stroke-width:0.376181"
     d="m 73.167297,183.95274 v -3.76181 h 4.702268 4.702269 v 3.76181 3.76182 h -4.702269 -4.702268 z"
     id="path328" />
  <path
     style="fill:#ffffff;stroke-width:0.376181"
     d="m 87.462193,222.77043 v -3.69083 l 9.437263,-9.66362 9.437264,-9.66362 H 98.028 89.719282 v -3.76181 -3.76182 h 14.482988 14.48299 v 3.61208 3.61208 l -9.21645,9.41146 c -5.06905,5.17631 -9.21645,9.56037 -9.21645,9.74237 0,0.18199 4.1474,0.3309 9.21645,0.3309 h 9.21645 v 3.76181 3.76182 H 103.07372 87.462193 Z"
     id="path367" />
  <path
     style="fill:#ffffff;stroke-width:0.376181"
     d="m 136.55388,227.35139 c -4.16091,-0.64038 -7.43845,-2.13341 -10.05392,-4.57987 -3.61144,-3.37809 -5.23332,-7.49805 -5.21147,-13.23844 0.0223,-5.86083 1.45884,-9.70479 4.92039,-13.16635 3.37371,-3.37371 7.45701,-4.89036 13.16636,-4.89036 9.76197,0 16.00461,5.05781 17.93943,14.5346 1.02887,5.03943 -0.14258,10.53146 -3.19285,14.9689 -1.46386,2.12957 -5.00222,4.59382 -7.86644,5.47849 -2.44063,0.75383 -7.55001,1.22416 -9.7015,0.89303 z m 4.89035,-8.07663 c 2.26895,-0.61978 3.92599,-2.08081 5.02985,-4.4349 0.86458,-1.84377 0.98786,-2.58289 0.97952,-5.87256 -0.008,-3.24045 -0.13888,-4.02178 -0.94045,-5.62351 -0.51201,-1.0231 -1.57815,-2.37401 -2.36921,-3.00202 -1.24314,-0.98692 -1.80713,-1.16047 -4.15676,-1.27912 -2.22936,-0.11258 -3.04412,0.0158 -4.52849,0.71353 -3.42919,1.61191 -5.00304,5.16678 -4.639,10.4781 0.32816,4.7877 2.32142,7.84828 5.82013,8.93656 1.83399,0.57047 2.95172,0.58999 4.80441,0.0839 z"
     id="path406" />
  <path
     style="fill:#ffffff;stroke-width:0.376181"
     d="m 181.809,214.63838 c -0.10826,-11.65129 -0.14833,-12.2467 -0.89245,-13.26039 -2.29388,-3.1249 -7.58561,-3.02939 -9.22577,0.16651 -0.41301,0.80475 -0.55298,3.63421 -0.6418,12.97299 l -0.1136,11.94376 h -4.87081 -4.87081 v -16.92817 -16.92817 h 4.89036 4.89036 v 0.90969 c 0,2.04339 0.36503,2.19739 1.90684,0.80445 4.22874,-3.8204 13.07706,-3.63356 16.43407,0.34702 2.14296,2.54104 2.15095,2.60407 2.2793,17.97051 l 0.11862,14.20085 h -4.89548 -4.89548 z"
     id="path445" />
  <path
     style="fill:#ffffff;stroke-width:0.376181"
     d="m 204.35474,227.20351 c -3.59682,-0.90586 -6.49083,-3.45393 -7.59141,-6.68395 -2.00577,-5.88661 1.427,-11.48326 8.35609,-13.62344 1.31424,-0.40593 4.49545,-1.19818 7.06936,-1.76057 l 4.67984,-1.02251 v -1.55993 c 0,-3.70332 -1.23194,-4.87344 -4.855,-4.61138 -2.57873,0.18653 -3.96483,1.13338 -4.37182,2.98642 l -0.2375,1.0813 h -5.09664 -5.09663 l 0.24613,-1.53924 c 0.83584,-5.22703 5.37316,-8.46038 12.47492,-8.88979 7.32119,-0.44267 13.34225,1.77787 15.52825,5.72676 0.53824,0.97229 0.65078,2.97759 0.81283,14.48299 0.13938,9.89608 0.31329,13.57363 0.67155,14.20085 l 0.48346,0.84641 h -4.7155 -4.71551 v -1.69282 c 0,-0.93105 -0.0965,-1.69281 -0.21435,-1.69281 -0.1179,0 -0.9907,0.53413 -1.93957,1.18697 -3.39709,2.33726 -8.16521,3.40171 -11.4885,2.56474 z m 8.02491,-7.33847 c 2.5319,-1.3093 4.10654,-4.28327 4.11069,-7.76375 l 0.002,-1.75787 -2.72732,0.76793 c -6.55447,1.84555 -8.55813,3.19346 -8.55813,5.75727 0,1.46044 1.46175,3.43273 2.74016,3.69722 1.16052,0.24009 3.25266,-0.0907 4.4325,-0.7008 z"
     id="path484" />
  <path
     style="fill:#ffffff;stroke-width:0.376181"
     d="m 257.67567,227.51659 c -6.40461,-0.49303 -11.74074,-2.8593 -15.72163,-6.97166 l -1.81155,-1.87138 4.17818,-2.68933 c 2.298,-1.47913 4.27765,-2.68932 4.39923,-2.68932 0.12158,0 0.86874,0.58515 1.66037,1.30034 2.85547,2.57974 7.00191,4.0251 11.60487,4.04519 5.52227,0.0241 9.05361,-2.07565 9.05361,-5.38335 0,-0.83401 -0.18376,-1.85973 -0.40835,-2.27939 -0.70305,-1.31365 -3.46945,-2.19685 -9.27662,-2.96165 -8.7297,-1.1497 -12.2817,-2.35911 -15.26955,-5.1991 -5.25262,-4.99268 -4.55337,-14.53488 1.42404,-19.43291 6.5932,-5.40264 18.90186,-5.70338 27.20567,-0.66472 2.6488,1.60726 6.48902,4.53063 6.46738,4.92329 -0.008,0.14303 -1.7866,1.50061 -3.95271,3.01686 l -3.93839,2.75681 -1.78405,-1.58627 c -2.00853,-1.78587 -3.82101,-2.69417 -7.05913,-3.53759 -4.15268,-1.08164 -7.05994,-0.55725 -9.29347,1.67629 -1.15564,1.15563 -1.41917,1.69124 -1.41917,2.88444 0,2.97672 1.6154,4.03584 7.39243,4.84679 4.00355,0.562 10.25273,1.77115 12.5317,2.42475 3.34307,0.95877 6.65822,4.00255 7.70479,7.07409 0.8096,2.37602 0.74997,6.62651 -0.12879,9.18066 -2.86849,8.33741 -10.85895,12.1148 -23.55886,11.13716 z"
     id="path599" />
  <path
     style="fill:#ffffff;stroke-width:0.376181"
     d="m 293.23684,226.0999 c -2.37336,-0.81919 -3.91427,-2.33358 -4.49224,-4.41492 -0.23477,-0.84542 -0.39816,-5.70129 -0.3994,-11.86976 l -0.002,-10.43904 h -2.44518 -2.44518 v -3.00945 -3.00945 h 2.44518 2.44518 v -5.45463 -5.45463 h 4.70227 4.70227 v 5.26654 5.26654 h 3.38563 3.38563 V 195.99055 199 h -3.40432 -3.40432 l 0.11273,9.2037 c 0.1316,10.74379 -0.0182,10.32818 3.83401,10.63739 l 2.48572,0.19953 v 3.6611 3.66109 l -1.41068,0.23317 c -2.84266,0.46986 -7.38407,0.23259 -9.4952,-0.49608 z"
     id="path638" />
  <path
     style="fill:#ffffff;stroke-width:0.376181"
     d="m 314.9521,227.20351 c -4.91496,-1.23783 -8.18431,-5.36197 -8.17243,-10.30912 0.008,-3.15212 2.77325,-7.2121 6.05259,-8.88509 1.5531,-0.79234 8.04782,-2.58641 12.28258,-3.39289 l 2.35113,-0.44776 v -1.85064 c 0,-2.27486 -0.83108,-3.98138 -2.09321,-4.29816 -0.52304,-0.13127 -1.87552,-0.16201 -3.0055,-0.0683 -2.3366,0.19377 -3.73899,1.20497 -4.12811,2.9766 l -0.23749,1.0813 h -5.04856 c -5.65619,0 -5.39442,0.17263 -4.46814,-2.94647 1.53661,-5.17435 6.9992,-7.88912 15.03111,-7.47008 4.72067,0.24628 8.14118,1.28191 10.27965,3.11236 3.02514,2.5894 2.99803,2.44005 3.13852,17.29264 0.093,9.82743 0.24643,13.36041 0.60782,13.99312 l 0.48347,0.84641 h -4.71551 -4.7155 v -1.69282 c 0,-0.93105 -0.0965,-1.69281 -0.21436,-1.69281 -0.1179,0 -0.9907,0.53413 -1.93956,1.18697 -3.39709,2.33726 -8.16521,3.40171 -11.4885,2.56474 z m 7.36976,-6.98508 c 3.19157,-1.08748 5.48826,-4.99707 5.08481,-8.65575 l -0.12879,-1.16795 -3.58623,1.02208 c -5.94179,1.69341 -7.51946,2.83549 -7.49916,5.4287 0.0136,1.74301 0.53177,2.58443 2.09266,3.39842 1.37786,0.71855 1.86201,0.7155 4.03671,-0.0255 z"
     id="path677" />
  <path
     style="fill:#ffffff;stroke-width:0.376181"
     d="m 349.87052,226.27612 c -3.28762,-1.17116 -4.6617,-2.89855 -5.11699,-6.43269 -0.18413,-1.42925 -0.34031,-6.61907 -0.34708,-11.53294 l -0.0123,-8.93431 h -2.44518 -2.44518 v -3.00945 -3.00945 h 2.44518 2.44518 v -5.45463 -5.45463 h 4.89036 4.89036 v 5.26654 5.26654 h 3.19754 3.19754 V 195.99055 199 h -3.19754 -3.19754 l 0.006,9.1224 c 0.003,5.01732 0.14203,9.3371 0.30858,9.5995 0.40771,0.64235 2.52038,1.21572 4.47949,1.21572 h 1.60125 v 3.71259 3.7126 l -1.41068,0.23317 c -2.47232,0.40865 -7.75429,0.22676 -9.28874,-0.31986 z"
     id="path716" />
  <path
     style="fill:#ffffff;stroke-width:0.376181"
     d="m 374.95914,227.38472 c -9.35068,-2.51792 -14.14455,-12.1198 -11.40292,-22.83947 0.94901,-3.7106 1.95074,-5.61804 4.19864,-7.99487 4.12347,-4.35996 10.34879,-6.02876 16.80849,-4.50578 7.52613,1.7744 11.58674,7.23575 12.65338,17.01825 l 0.25636,2.35114 h -12.43267 -12.43267 v 0.87218 c 0,0.47969 0.25489,1.73048 0.56642,2.77953 1.8471,6.21986 10.8161,7.26482 15.02645,1.7507 0.73441,-0.96183 1.3353,-1.89543 1.3353,-2.07465 0,-0.25615 6.53022,2.76238 7.09842,3.28117 0.25233,0.2304 -2.55597,3.81106 -4.04182,5.15343 -4.56126,4.12083 -11.66365,5.81588 -17.63338,4.20837 z m 11.78432,-23.58649 c -0.50854,-3.18022 -2.54566,-5.2621 -5.56761,-5.68993 -4.11223,-0.58219 -7.65262,1.89731 -8.39029,5.8761 l -0.26154,1.41069 h 7.23739 7.23739 z"
     id="path755" />
  <path
     style="fill:#ffffff;stroke-width:0.376181"
     d="m 263.13894,300.569 v -3.76182 h 3.02655 c 2.7118,0 3.12258,-0.096 3.94991,-0.92335 0.50784,-0.50785 0.92335,-1.17585 0.92335,-1.48446 0,-0.44629 -6.40789,-21.77643 -10.09742,-33.61156 l -0.73295,-2.35114 h 5.16162 5.16161 l 2.72716,11.75567 c 3.2973,14.21339 3.06125,13.3379 3.41434,12.66336 0.15302,-0.29233 1.52151,-5.9062 3.0411,-12.47527 l 2.76288,-11.94376 h 5.19009 c 2.95897,0 5.1901,0.15081 5.1901,0.35081 0,0.66426 -12.0945,37.37408 -12.95265,39.3145 -1.11564,2.52267 -3.02324,4.66888 -4.91275,5.52726 -1.22085,0.55462 -2.49275,0.68662 -6.68044,0.69331 l -5.1725,0.008 z"
     id="path794" />
  <path
     style="fill:#ffffff;stroke-width:0.376181"
     d="m 246.58696,292.30821 c -2.32009,-0.79909 -3.93239,-2.41295 -4.5186,-4.52298 -0.20216,-0.72767 -0.36851,-6.0206 -0.36966,-11.76207 l -0.002,-10.43904 h -2.63327 -2.63327 v -3.00945 -3.00945 h 2.44518 2.44518 v -5.45463 -5.45464 h 4.89036 4.89035 v 5.26655 5.26654 h 3.38564 3.38563 v 3.00945 3.00945 h -3.40985 -3.40986 l 0.11827,9.2037 c 0.13805,10.74325 -0.0117,10.32825 3.83953,10.63739 l 2.48573,0.19953 v 3.66329 3.66329 l -1.17557,0.23512 c -2.4526,0.49052 -7.62666,0.22365 -9.73369,-0.50205 z"
     id="path833" />
  <path
     style="fill:#ffffff;stroke-width:0.376181"
     d="m 222.51134,275.74102 v -17.30435 h 4.89036 4.89036 v 17.30435 17.30435 h -4.89036 -4.89036 z"
     id="path872" />
  <path
     style="fill:#ffffff;stroke-width:0.376181"
     d="m 222.51134,250.16068 v -3.76181 h 4.89036 4.89036 v 3.76181 3.76182 h -4.89036 -4.89036 z"
     id="path911" />
  <path
     style="fill:#ffffff;stroke-width:0.376181"
     d="m 197.30718,292.83468 c -2.99005,-0.64451 -7.16746,-2.65937 -9.29522,-4.48331 l -1.5835,-1.35739 3.08823,-2.75724 3.08822,-2.75724 1.2904,1.12871 c 0.70972,0.62078 2.31789,1.6148 3.57372,2.20891 4.12129,1.94971 9.67278,1.3357 11.0936,-1.22699 0.49169,-0.88686 0.48053,-1.09643 -0.1061,-1.99174 -0.80831,-1.23364 -1.80364,-1.6288 -5.88281,-2.33557 -7.3118,-1.26686 -10.85434,-2.95076 -12.64852,-6.01229 -1.37379,-2.3442 -1.49311,-6.16882 -0.27543,-8.82858 3.57239,-7.80314 16.49877,-9.6217 26.27522,-3.69655 1.1397,0.69073 2.07217,1.36084 2.07217,1.48913 0,0.12829 -1.26768,1.37233 -2.81708,2.76454 l -2.81709,2.53128 -2.74884,-1.35855 c -3.12236,-1.54315 -6.01809,-2.00453 -8.45211,-1.34669 -2.82681,0.764 -3.50512,3.17187 -1.22561,4.35066 0.58917,0.30466 2.98943,0.96322 5.33393,1.46344 7.61074,1.62386 10.944,3.38364 12.63573,6.671 1.15346,2.24138 1.22551,5.94266 0.16246,8.34585 -2.62303,5.92979 -11.83291,9.12315 -20.76137,7.19862 z"
     id="path950" />
  <path
     style="fill:#ffffff;stroke-width:0.376181"
     d="m 166.4603,275.74102 v -17.30435 h 4.89036 4.89036 v 1.88327 1.88327 l 1.56675,-1.13495 c 1.6001,-1.15911 5.6921,-2.63159 7.31314,-2.63159 0.89736,0 0.90083,0.0164 0.90083,4.26584 v 4.26584 l -2.72732,0.48256 c -1.50002,0.2654 -3.36862,0.7367 -4.15244,1.04732 -2.45841,0.97427 -2.52478,1.33224 -2.52478,13.61919 v 10.92795 h -5.07845 -5.07845 z"
     id="path989" />
  <path
     style="fill:#ffffff;stroke-width:0.376181"
     d="m 139.79078,293.5786 c -10.54749,-2.83638 -15.16693,-15.36989 -9.8514,-26.72892 3.33874,-7.13472 11.58855,-10.71912 19.76769,-8.58872 7.35805,1.91653 11.52135,7.53637 12.46192,16.82174 l 0.25721,2.53923 H 149.91755 137.4089 l 0.26664,1.77803 c 0.8363,5.57688 5.16008,8.28429 10.91564,6.83503 1.93325,-0.4868 4.24618,-2.34249 5.25537,-4.21644 l 0.71381,-1.32548 3.41075,1.70541 c 1.87591,0.93798 3.46938,1.75861 3.54105,1.82363 0.28367,0.25735 -2.21163,3.4665 -3.98409,5.12384 -4.46753,4.17738 -11.60722,5.88112 -17.73729,4.23265 z m 12.15663,-23.01007 c -0.79098,-3.52194 -2.89732,-5.79311 -5.80373,-6.25786 -4.08353,-0.65298 -7.52862,1.82307 -8.44524,6.06976 l -0.26389,1.22259 h 7.3726 7.37259 z"
     id="path1028" />
  <path
     style="fill:#ffffff;stroke-width:0.376181"
     d="m 103.89107,287.13043 c -0.96888,-3.05723 -3.43144,-10.76401 -5.472357,-17.12618 l -3.710749,-11.56758 h 5.159502 5.159504 l 2.14719,8.09314 c 1.18096,4.45122 2.54436,10.04883 3.02977,12.43912 0.48541,2.39029 0.96287,4.42629 1.06101,4.52443 0.0982,0.0982 0.47229,-1.4535 0.83142,-3.4481 0.6551,-3.63836 4.90075,-21.17438 5.19866,-21.47229 0.0874,-0.0874 2.35542,-0.11146 5.04012,-0.0535 l 4.88126,0.10532 -5.55396,16.92817 -5.55397,16.92817 -5.2279,0.10396 -5.2279,0.10397 z"
     id="path1067" />
  <path
     style="fill:#ffffff;stroke-width:0.376181"
     d="m 81.819471,275.74102 v -17.30435 h 4.702268 4.702269 v 17.30435 17.30435 h -4.702269 -4.702268 z"
     id="path1106" />
  <path
     style="fill:#ffffff;stroke-width:0.376181"
     d="m 81.819471,250.16068 v -3.76181 h 4.702268 4.702269 v 3.76181 3.76182 h -4.702269 -4.702268 z"
     id="path1145" />
  <path
     style="fill:#ffffff;stroke-width:0.376181"
     d="m 65.945105,280.84632 c -0.108258,-11.65129 -0.14833,-12.2467 -0.892451,-13.26039 -2.293883,-3.1249 -7.58561,-3.02939 -9.225771,0.16651 -0.413002,0.80475 -0.552982,3.63421 -0.641802,12.97299 l -0.113595,11.94376 h -4.870809 -4.870809 v -17.11626 -17.11626 h 4.890359 4.890359 v 1.69282 c 0,0.93105 0.106444,1.69282 0.236543,1.69282 0.130098,0 0.884475,-0.58537 1.676394,-1.30082 4.222578,-3.81485 13.073621,-3.62492 16.427968,0.35252 2.142965,2.54104 2.150959,2.60407 2.279309,17.97051 l 0.118614,14.20085 h -4.895481 -4.895481 z"
     id="path1184" />
</svg>
