<?xml version="1.0" encoding="UTF-8" standalone="no"?>
<svg
   viewBox="0 0 399.67 266.46"
   version="1.1"
   id="svg48"
   sodipodi:docname="clear_channel.svg"
   inkscape:version="1.1.1 (3bf5ae0d25, 2021-09-20)"
   xmlns:inkscape="http://www.inkscape.org/namespaces/inkscape"
   xmlns:sodipodi="http://sodipodi.sourceforge.net/DTD/sodipodi-0.dtd"
   xmlns="http://www.w3.org/2000/svg"
   xmlns:svg="http://www.w3.org/2000/svg" fill="white" fill-rule="nonzero">
  <defs
     id="defs52">
    <inkscape:path-effect
       effect="powerstroke"
       id="path-effect1725"
       is_visible="true"
       lpeversion="1"
       offset_points="0.81459303,0.062605455"
       not_jump="true"
       sort_points="true"
       interpolator_type="CentripetalCatmullRom"
       interpolator_beta="0.75"
       start_linecap_type="round"
       linejoin_type="spiro"
       miter_limit="4"
       scale_width="1"
       end_linecap_type="round" />
    <inkscape:path-effect
       effect="simplify"
       id="path-effect1723"
       is_visible="true"
       lpeversion="1"
       steps="1"
       threshold="0.0032025118"
       smooth_angles="0"
       helper_size="0"
       simplify_individual_paths="false"
       simplify_just_coalesce="false"
       step="1" />
    <inkscape:path-effect
       effect="powerstroke"
       id="path-effect1718"
       is_visible="true"
       lpeversion="1"
       offset_points="0.48331696,0.062605455"
       not_jump="true"
       sort_points="true"
       interpolator_type="CentripetalCatmullRom"
       interpolator_beta="0.75"
       start_linecap_type="round"
       linejoin_type="spiro"
       miter_limit="4"
       scale_width="1"
       end_linecap_type="round" />
    <inkscape:path-effect
       effect="simplify"
       id="path-effect1716"
       is_visible="true"
       lpeversion="1"
       steps="1"
       threshold="0.0032025118"
       smooth_angles="0"
       helper_size="0"
       simplify_individual_paths="false"
       simplify_just_coalesce="false"
       step="1" />
    <inkscape:path-effect
       effect="powerstroke"
       id="path-effect1711"
       is_visible="true"
       lpeversion="1"
       offset_points="0.48011307,0.062605455"
       not_jump="true"
       sort_points="true"
       interpolator_type="CentripetalCatmullRom"
       interpolator_beta="0.75"
       start_linecap_type="round"
       linejoin_type="spiro"
       miter_limit="4"
       scale_width="1"
       end_linecap_type="round" />
    <inkscape:path-effect
       effect="simplify"
       id="path-effect1709"
       is_visible="true"
       lpeversion="1"
       steps="1"
       threshold="0.0032025118"
       smooth_angles="0"
       helper_size="0"
       simplify_individual_paths="false"
       simplify_just_coalesce="false"
       step="1" />
    <inkscape:path-effect
       effect="powerstroke"
       id="path-effect1704"
       is_visible="true"
       lpeversion="1"
       offset_points="0.32568087,0.062605455"
       not_jump="true"
       sort_points="true"
       interpolator_type="CentripetalCatmullRom"
       interpolator_beta="0.75"
       start_linecap_type="round"
       linejoin_type="spiro"
       miter_limit="4"
       scale_width="1"
       end_linecap_type="round" />
    <inkscape:path-effect
       effect="simplify"
       id="path-effect1702"
       is_visible="true"
       lpeversion="1"
       steps="1"
       threshold="0.0032025118"
       smooth_angles="0"
       helper_size="0"
       simplify_individual_paths="false"
       simplify_just_coalesce="false"
       step="1" />
    <inkscape:path-effect
       effect="powerstroke"
       id="path-effect1697"
       is_visible="true"
       lpeversion="1"
       offset_points="0.70481278,0.062605455"
       not_jump="true"
       sort_points="true"
       interpolator_type="CentripetalCatmullRom"
       interpolator_beta="0.75"
       start_linecap_type="round"
       linejoin_type="spiro"
       miter_limit="4"
       scale_width="1"
       end_linecap_type="round" />
    <inkscape:path-effect
       effect="simplify"
       id="path-effect1695"
       is_visible="true"
       lpeversion="1"
       steps="1"
       threshold="0.0032025118"
       smooth_angles="0"
       helper_size="0"
       simplify_individual_paths="false"
       simplify_just_coalesce="false"
       step="1" />
    <inkscape:path-effect
       effect="powerstroke"
       id="path-effect1688"
       is_visible="true"
       lpeversion="1"
       offset_points="0.22654092,0.062605455"
       not_jump="true"
       sort_points="true"
       interpolator_type="CentripetalCatmullRom"
       interpolator_beta="0.75"
       start_linecap_type="round"
       linejoin_type="spiro"
       miter_limit="4"
       scale_width="1"
       end_linecap_type="round" />
    <inkscape:path-effect
       effect="simplify"
       id="path-effect1686"
       is_visible="true"
       lpeversion="1"
       steps="1"
       threshold="0.0032025118"
       smooth_angles="0"
       helper_size="0"
       simplify_individual_paths="false"
       simplify_just_coalesce="false"
       step="1" />
  </defs>
  <sodipodi:namedview
     id="namedview50"
     pagecolor="#ffffff"
     bordercolor="#666666"
     borderopacity="1.0"
     inkscape:pageshadow="2"
     inkscape:pageopacity="0.0"
     inkscape:pagecheckerboard="0"
     showgrid="false"
     inkscape:zoom="2.6471838"
     inkscape:cx="148.27078"
     inkscape:cy="191.71317"
     inkscape:window-width="1920"
     inkscape:window-height="1017"
     inkscape:window-x="-8"
     inkscape:window-y="-8"
     inkscape:window-maximized="1"
     inkscape:current-layer="svg48" />
  <g
     transform="translate(-.17 -.17)"
     id="g46">
    <path
       d="m264.42.17c1.9.37 3.81.68 5.69 1.14 8.91 2.18 14 8.26 14.16 17.37.17 8.25.07 16.51 0 24.76a2.6 2.6 0 0 1 -.83 1.79c-22.65 18.3-46.44 34.77-74.13 44.77-11.56 4.18-23.43 6.84-35.82 6.1-8.61-.5-16.69-2.7-23.18-8.77-6.1-5.69-8.55-12.88-7.78-21.12 1.18-12.63 8-22.25 16.82-30.71 9.32-9 20.51-14.93 32.21-20.09a180.18 180.18 0 0 1 45.51-13.56c4.11-.62 8.26-.88 12.39-1.32.7-.08 1.39-.24 2.08-.36z"
       id="path2" />
    <path
       d="m189.88.17c-6.7 2.73-13.5 5.25-20.08 8.24a112.81 112.81 0 0 0 -32.16 21.28 73.85 73.85 0 0 0 -20.83 35.18c-.09.37-.27.71-.59 1.54 0-1.1-.1-1.74-.1-2.38 0-15.92.3-31.85-.13-47.76-.22-8 6.61-14.32 12.37-15.7a9.15 9.15 0 0 0 1-.4z"
       id="path4" />
    <path
       d="m399.83 200.26h-7.15v-45.63h7.15z"
       id="path6" />
    <path
       d="m116.17 94.39c2.31 3.11 4.4 6.38 6.93 9.27 7.7 8.78 17.72 13.32 29.08 15.06 17 2.61 33.45-.47 49.59-5.64 23.2-7.43 44.39-19 64.59-32.39 6-4 11.81-8.2 17.88-12.43 0 .77.09 1.45.09 2.12 0 16.12-.27 32.24.12 48.35.18 7.52-6.75 14-12.46 15.19a18 18 0 0 1 -3.66.41q-68.07 0-136.15 0c-7.38 0-14.28-5.37-15.85-12.28a8.42 8.42 0 0 1 -.2-1.73q0-12.57 0-25.15c-.01-.28.03-.58.04-.78z"
       id="path8" />
    <path
       d="m42.59 164-6.72 3.53a13.94 13.94 0 0 0 -8.45-6.24 15.38 15.38 0 0 0 -18.6 12.48c-1.08 6.78.44 12.75 6 17 6.39 4.91 15.39 4.18 20.36-2.66.18-.25.4-.49.7-.84l6.59 3.27c-2.47 6.81-12.68 11.72-21.47 10.46-11.82-1.79-20-10.11-20.76-21.29-.85-12 5.61-21.83 16.43-25 10.58-3.13 21.09.57 25.92 9.29z"
       id="path10" />
    <path
       d="m201.87 187.29 6.62 3.32c-4.6 8.19-13.21 11.95-23.71 10a23 23 0 0 1 -18.69-21.71c-.54-11.59 5.89-21 16.5-24.19s20.82.47 25.94 9.24l-6.73 3.57a14.32 14.32 0 0 0 -8.39-6.23 15.38 15.38 0 0 0 -18.72 12.71c-1 7 .7 13.07 6.79 17.25 6.69 4.6 14.73 3.21 19.68-3.22.2-.21.43-.43.71-.74z"
       id="path12" />
    <path
       d="m120.82 200.11v-3.41c-2.22 1.27-4.33 3-6.74 3.78a13.4 13.4 0 0 1 -16.3-6.83 21.45 21.45 0 0 1 -.12-19.65c4.27-8.74 15.3-10.43 22.22-3.59a2.94 2.94 0 0 1 .39.88l.5-.33v-3.72h7.33v32.88zm0-16.45c0-1.82.05-3.64 0-5.46a3 3 0 0 0 -.53-1.77 10.08 10.08 0 0 0 -8.58-3.74 8.49 8.49 0 0 0 -7.62 5.51 13.56 13.56 0 0 0 -.2 10.41 8.86 8.86 0 0 0 10.72 5.79c4.33-1 6.23-3.29 6.23-7.62z"
       id="path14" />
    <path
       d="m272.21 171.16v-3.92h7.32v32.87h-7.18c-.05-1.19-.11-2.37-.15-3.31-2.23 1.27-4.32 2.91-6.69 3.7a13.42 13.42 0 0 1 -16.2-6.73 21.42 21.42 0 0 1 -.05-20 13.66 13.66 0 0 1 21.91-3.57c.25.23.52.47 1.04.96zm.05 12.54c0-1.88.06-3.76 0-5.64a3.08 3.08 0 0 0 -.7-1.91c-2.89-2.9-6.36-4.28-10.42-3.06-3.89 1.17-5.72 4.2-6.44 8a11.28 11.28 0 0 0 -.18 1.74c-.06 4.43.9 8.42 5.12 10.78 3.37 1.88 7.67 1.17 11.05-1.57a3.82 3.82 0 0 0 1.63-3.49c-.14-1.55-.06-3.22-.06-4.85z"
       id="path16" />
    <path
       d="m213 154.54h7v16.77c2.71-2.52 5.41-4.39 8.69-4.7a22.6 22.6 0 0 1 7.66.38c4.52 1.18 6 4.94 6.1 9.15.16 7.85 0 15.71 0 23.57 0 .11-.1.23-.2.45h-7.11v-2.1c0-6-.22-12 .05-17.93.33-7.28-5.09-8.49-9.91-6.84a14.83 14.83 0 0 0 -2.43 1.2 5.37 5.37 0 0 0 -3 5.36c.22 6 .07 12.08.07 18.12v2.19h-7z"
       id="path18" />
    <path
       d="m91.94 186.09h-25.55c.26 7.13 9.53 13.13 19.9 5.49 1.06 1.52 2.13 3 3.23 4.6a17.49 17.49 0 0 1 -10.14 4.67c-7.16.91-13.53-.67-17.82-7-6.09-8.95-3-24.77 10.65-27.3 10.34-1.91 18 4.33 19.32 14.29.23 1.68.27 3.35.41 5.25zm-7.27-5.41c-.56-5.62-4.54-8.9-10.14-8.48-4.57.34-8.28 4.21-8.13 8.48z"
       id="path20" />
    <path
       d="m387.74 186.16h-25.29c.73 8.9 9.87 11.36 19.95 5.46 1 1.46 2 2.93 3.18 4.55a16.22 16.22 0 0 1 -8 4.24c-7.31 1.6-14 .71-19.1-5.39-7.51-9.06-4.19-26.11 10.07-28.51 10.8-1.82 18.16 5 19.16 15.43.13 1.28.03 2.59.03 4.22zm-25.31-5.48h18.23c0-4.84-4-8.48-9.1-8.5s-9.08 3.7-9.13 8.5z"
       id="path22" />
    <path
       d="m292.41 167.23v3.21c2.83-1.29 5.55-3 8.52-3.72a17.52 17.52 0 0 1 7.65.21 8.1 8.1 0 0 1 6.15 8.07c.11 8.32 0 16.64 0 25.12h-7.09v-2c0-5.85 0-11.7 0-17.55 0-.84-.13-1.68-.19-2.52-.32-4.24-3.51-5.87-7.1-5.33-2.25.34-4.37 1.73-6.47 2.8-1.18.61-1.49 1.78-1.47 3.15.06 7.08 0 14.16 0 21.4h-7.21v-32.84z"
       id="path24" />
    <path
       d="m328 200.17h-7.24v-32.91h7.24v3.16c2.87-1.28 5.6-3 8.57-3.69a17.41 17.41 0 0 1 7.46.15 7.91 7.91 0 0 1 6.2 7.6c.15 8.5 0 17 0 25.65h-7v-2q0-9.08 0-18.13c0-5.78-3.2-8.42-8.8-7a14.47 14.47 0 0 0 -5 2.72 4.23 4.23 0 0 0 -1.32 2.94c-.12 6.43-.06 12.87-.06 19.3z"
       id="path26" />
    <path
       d="m109.62 266.56c-11.75 0-20.85-8.42-22-20.17-.78-7.73.61-14.85 6-20.61 6.2-6.58 14.05-8.13 22.54-5.81s13.12 8.24 15.13 16.48a27.12 27.12 0 0 1 -.29 14.05 21.43 21.43 0 0 1 -21.38 16.06zm-18.15-23a51.79 51.79 0 0 0 .93 5.77 17.38 17.38 0 0 0 17 13.63c8.15.15 14.77-4.74 17.3-12.78a24.1 24.1 0 0 0 .7-11.92c-1.25-6.58-4.44-11.84-11-14.28s-12.58-1.8-18 2.55c-5.03 4.07-6.66 9.8-6.93 17.03z"
       id="path28" />
    <path
       d="m213.19 219.86h3.58v45.74h-3.42v-5c-2.47 2.84-5 4.7-8.14 5.5a13.83 13.83 0 0 1 -16.68-8.38 21.86 21.86 0 0 1 .61-18.47 13.94 13.94 0 0 1 22.4-3.52c.46.45.91.92 1.65 1.67zm.09 29.4c0-2.34 0-4.68 0-7a3.44 3.44 0 0 0 -.41-1.83 12.73 12.73 0 0 0 -11-5.45 10.16 10.16 0 0 0 -9.18 5.87 17.7 17.7 0 0 0 -1.69 11.7c.85 4.67 2.87 8.56 7.69 10.11 5 1.59 9.3.06 13-3.4a4.4 4.4 0 0 0 1.55-3.78c-.06-2.07.04-4.15.04-6.22z"
       id="path30" />
    <path
       d="m291.46 249c-.1 7.64-3.85 13.92-9.88 16.39a15.79 15.79 0 0 1 -21.83-12.2c-1-6-.19-11.6 3.85-16.3 4.35-5.07 10.08-6.23 16.31-4.56s9.62 6.29 11 12.43c.31 1.36.37 2.8.55 4.24zm-4 .55a16.8 16.8 0 0 0 -2.22-8.9 11.41 11.41 0 0 0 -19.58-.38 17.1 17.1 0 0 0 .26 18.05 11.36 11.36 0 0 0 18.92-.11 16.1 16.1 0 0 0 2.62-8.69z"
       id="path32" />
    <path
       d="m222.94 249.09c.11-8.18 4.48-14.76 11.25-16.79a15.83 15.83 0 0 1 20.43 12.45c1.07 5.8.35 11.33-3.42 16.05-4.26 5.32-10 6.84-16.46 5.19s-9.88-6.35-11.26-12.66c-.31-1.39-.36-2.83-.54-4.24zm4-.13a15.67 15.67 0 0 0 2.7 9.36 11.39 11.39 0 0 0 18.48.47c4-5.2 4.07-13.7.27-19a11.39 11.39 0 0 0 -18.94.33 15.46 15.46 0 0 0 -2.53 8.88z"
       id="path34" />
    <path
       d="m47.58 154.55h7.1v45.61h-7.1z"
       id="path36" />
    <path
       d="m141.43 200.17h-7.29v-32.93h7v4.43c3.23-3.08 6.38-5.43 10.78-5.35v7a11.9 11.9 0 0 0 -8.83 2.35 3.88 3.88 0 0 0 -1.7 3.45c.09 6.98.04 13.93.04 21.05z"
       id="path38" />
    <path
       d="m139.07 232.61h3.37v2.2 19.87s3.11 9.29 9.76 8.41a12.89 12.89 0 0 0 7.81-4 4.89 4.89 0 0 0 1.25-3c.11-7.08.06-14.16.06-21.24v-2.21h3.47v33h-3.37v-4.59c-1.08.85-1.8 1.44-2.54 2a15.81 15.81 0 0 1 -9.9 3.49c-6.33 0-9.87-3-10.09-9.35-.28-8-.07-16.1-.06-24.15.01-.1.17-.21.24-.43z"
       id="path40" />
    <path
       d="m185.16 261.83 1.24 2.5a7.92 7.92 0 0 1 -8.54 1.71c-2.76-1.2-3.58-3.58-3.59-6.36 0-7.2 0-14.41 0-21.62v-2.32h-5.39v-3.21h5.43v-9.09h3.57c0 2.43.07 4.86 0 7.29-.05 1.36.38 1.87 1.76 1.79 1.61-.1 3.22 0 5 0v3.17h-6.71v22.31c0 5.15 2.55 6.58 7.23 3.83z"
       id="path42" />
    <path
       d="m297.61 232.61h3.46v5.27c3.21-3.46 6.37-6.12 11.11-6v3.77c-3.83-.28-6.91 1.25-9.57 3.83a4.81 4.81 0 0 0 -1.57 3.78c.08 7.39 0 14.79 0 22.35h-3.47z"
       id="path44" />
  </g>
  <path
     style="fill:#ffffff;stroke-width:0.37776"
     d="m 129.19774,133.66083 c -4.7375,-0.90342 -9.69471,-4.65758 -11.79364,-8.93147 l -1.05404,-2.14626 -0.1124,-13.78731 c -0.0662,-8.11592 0.0264,-13.632301 0.22514,-13.410478 0.18564,0.207258 1.56917,2.055626 3.0745,4.107484 7.58925,10.344594 16.9545,16.236854 29.82805,18.766674 15.76729,3.09847 33.65946,1.0864 55.38054,-6.22786 22.71263,-7.64814 45.0606,-19.585655 71.72368,-38.312325 3.91971,-2.752983 7.1873,-4.944863 7.26131,-4.870844 0.074,0.07402 0.14984,11.864191 0.16849,26.200385 0.0366,28.139984 0.0951,27.238914 -1.99813,30.810644 -1.36386,2.32726 -4.8297,5.47688 -7.24203,6.58128 -1.12857,0.51668 -3.04143,1.10147 -4.2508,1.29953 -2.95154,0.48339 -138.65955,0.40703 -141.21067,-0.0795 z"
     id="path91" />
  <path
     style="fill:#ffffff;stroke-width:0.37776"
     d="m 170.8668,95.570567 c -4.99561,-0.576394 -9.38211,-1.818382 -13.49482,-3.82091 -3.41969,-1.665086 -4.38399,-2.364546 -7.40722,-5.372826 -5.28078,-5.254686 -7.38,-10.161709 -7.39964,-17.297008 -0.0298,-10.814349 4.49507,-20.738987 13.95733,-30.613624 7.2596,-7.57598 14.69795,-12.987083 25.18008,-18.317519 24.66309,-12.5418181 50.62014,-19.45696827 75.26614,-20.051452 6.29314,-0.15179632 9.74935,0.25486296 14.26296,1.6781887 6.58831,2.0775594 10.94625,6.6643145 12.23878,12.8813743 0.25875,1.244591 0.41618,7.199492 0.41618,15.742268 v 13.740433 l -1.98324,1.676276 c -5.83227,4.929559 -18.31163,14.196815 -26.62231,19.769919 -23.65091,15.860187 -47.95255,26.565616 -66.77883,29.417605 -4.73117,0.716724 -13.80925,1.008736 -17.63541,0.567275 z"
     id="path130" />
  <path
     style="fill:#ffffff;stroke-width:0.37776"
     d="m 116.27428,38.531514 0.0758,-26.632076 1.07063,-2.0775682 c 2.22379,-4.3152949 5.62223,-7.3710324 9.94124,-8.93874681 L 129.79491,0 159.33744,0.01407439 188.87997,0.02814882 181.13589,3.1770752 C 163.77935,10.234655 156.93334,13.856753 147.18645,21.139099 131.61098,32.776245 122.43419,45.234539 117.26229,61.76375 l -1.06379,3.399839 z"
     id="path169" />
  <path
     style="fill:#ffffff;stroke-width:0.37776"
     d="m 19.832397,200.41539 c -5.48052,-1.16405 -9.42826,-3.22211 -13.0694179,-6.81342 -4.6961419,-4.63186 -6.85501921,-10.52191 -6.438399,-17.56584 0.24906272,-4.21098 0.9452299,-6.78181 2.7948375,-10.32088 3.7454286,-7.16657 10.9337634,-11.49168 19.7350584,-11.87428 7.555061,-0.32843 13.686395,2.39805 17.86361,7.94359 l 1.431049,1.89982 -3.060395,1.63521 -3.060394,1.6352 -1.959376,-2.00134 c -1.095492,-1.11896 -2.958695,-2.48584 -4.225935,-3.10023 -2.033947,-0.98611 -2.654247,-1.09979 -6.044159,-1.10763 -3.472097,-0.008 -3.982999,0.0886 -6.317404,1.19442 -4.676073,2.21515 -7.6182821,5.81155 -8.7773976,10.72901 -1.9984,8.47806 1.4394306,16.26795 8.7674146,19.86637 1.964434,0.96464 2.551129,1.06658 6.138507,1.06658 3.527764,0 4.209206,-0.11373 6.161004,-1.0282 1.305706,-0.61176 2.989962,-1.85605 4.158488,-3.07221 l 1.963964,-2.044 3.121213,1.56931 3.121211,1.56932 -1.082226,1.70649 c -3.772276,5.94826 -13.643932,9.72211 -21.221253,8.11271 z"
     id="path208" />
  <path
     style="fill:#ffffff;stroke-width:0.37776"
     d="m 47.408872,177.16941 v -22.6656 h 3.39984 3.399839 v 22.6656 22.6656 h -3.399839 -3.39984 z"
     id="path247" />
  <path
     style="fill:#ffffff;stroke-width:0.37776"
     d="m 69.95358,199.84739 c -6.864292,-2.19335 -11.21191,-8.59022 -11.21191,-16.49665 0,-8.71569 5.426332,-15.33017 13.768183,-16.78284 5.477512,-0.95386 10.078618,0.38051 13.646543,3.95765 3.356422,3.3651 4.608935,6.43116 5.2989,12.97134 l 0.249077,2.361 H 78.821185 65.937997 l 0.233967,1.22772 c 1.355425,7.11246 9.480729,10.07573 17.116711,6.2424 1.354557,-0.68 2.581384,-1.23652 2.726282,-1.23672 0.144898,-2e-4 0.86315,0.84313 1.596115,1.87406 l 1.332664,1.87442 -0.778026,0.82817 c -1.001121,1.06564 -4.948952,3.00886 -7.136203,3.51261 -2.779222,0.64008 -8.575733,0.46573 -11.075927,-0.33316 z m 14.642014,-20.31698 c -0.124248,-0.57136 -0.682565,-1.96813 -1.240703,-3.10394 -0.769811,-1.56655 -1.462104,-2.34172 -2.867643,-3.21096 -1.689696,-1.04496 -2.140697,-1.14586 -5.121931,-1.14586 -2.979115,0 -3.433258,0.10141 -5.119941,1.14327 -2.05674,1.27044 -3.734468,3.69 -4.118614,5.93973 l -0.241888,1.4166 h 9.468313 9.468313 z"
     id="path286" />
  <path
     style="fill:#ffffff;stroke-width:0.37776"
     d="m 107.44687,200.59121 c -5.50699,-0.94515 -9.756333,-5.48122 -11.487679,-12.26281 -2.11354,-8.27862 1.706296,-17.77078 8.417199,-20.91646 1.8126,-0.84964 2.65822,-1.00697 5.36287,-0.99777 3.71724,0.0126 6.378,1.0052 8.96848,3.34554 0.83132,0.75105 1.61838,1.36554 1.74902,1.36554 0.13065,0 0.23754,-0.84996 0.23754,-1.8888 v -1.8888 h 3.58872 3.58872 v 16.24368 16.24368 h -3.58872 -3.58872 v -1.69992 c 0,-0.93496 -0.0817,-1.69992 -0.18155,-1.69992 -0.0998,0 -1.16229,0.62742 -2.36099,1.39426 -3.84899,2.46232 -7.28487,3.34875 -10.70489,2.76178 z m 9.85165,-7.20177 c 1.02732,-0.5667 2.00308,-1.50567 2.52819,-2.43286 0.79546,-1.40456 0.8556,-1.96152 0.86138,-7.97822 l 0.006,-6.46825 -1.66405,-1.53386 c -1.69049,-1.55824 -4.56467,-2.71772 -6.73683,-2.71772 -4.215,0 -7.62373,2.6444 -8.93809,6.93391 -0.94513,3.08451 -0.99464,4.97583 -0.20947,8.00268 0.76839,2.96218 2.16061,4.90445 4.49755,6.27449 1.76483,1.03463 2.13338,1.1077 4.94452,0.98034 2.33434,-0.10575 3.42487,-0.35127 4.71059,-1.06051 z"
     id="path325" />
  <path
     style="fill:#ffffff;stroke-width:0.37776"
     d="m 134.29366,183.59133 v -16.24368 h 3.21096 3.21096 v 2.07768 c 0,1.14273 0.09,2.07768 0.19999,2.07768 0.11,0 1.08745,-0.7057 2.17212,-1.56822 2.214,-1.76055 5.04811,-3.16356 7.16632,-3.54764 l 1.4166,-0.25686 v 3.44188 3.44188 h -2.01038 c -2.75222,0 -5.32674,0.95609 -7.08923,2.63271 l -1.47766,1.40567 v 11.39129 11.39129 h -3.39984 -3.39984 z"
     id="path364" />
  <path
     style="fill:#ffffff;stroke-width:0.37776"
     d="m 183.74862,200.01544 c -14.68481,-3.5655 -21.87412,-19.75381 -14.99286,-33.75968 7.10211,-14.45538 28.73768,-17.02738 37.92722,-4.50872 0.75035,1.02219 1.30144,1.9065 1.22463,1.96515 -0.0768,0.0587 -1.44709,0.81453 -3.04507,1.67974 l -2.90543,1.57311 -2.093,-2.093 c -1.18747,-1.18747 -3.03574,-2.53389 -4.27201,-3.11207 -1.90955,-0.89305 -2.64617,-1.01932 -5.95661,-1.02109 -3.44405,-0.002 -3.99599,0.10146 -6.25093,1.17003 -5.58392,2.64608 -8.61389,7.11561 -9.25,13.64473 -0.69843,7.16886 2.68665,13.53454 8.92384,16.78134 2.29422,1.19428 2.63057,1.26082 6.38821,1.26382 3.62449,0.003 4.1619,-0.0924 6.23304,-1.1056 1.24661,-0.60982 3.12745,-1.98753 4.17965,-3.06156 l 1.91309,-1.9528 3.11838,1.56789 3.11837,1.56788 -1.67284,2.27239 c -2.56779,3.4881 -6.29864,5.95867 -10.73384,7.10794 -2.80737,0.72747 -8.89878,0.738 -11.85384,0.0205 z"
     id="path403" />
  <path
     style="fill:#ffffff;stroke-width:0.37776"
     d="m 212.86772,177.16941 v -22.6656 h 3.39984 3.39984 v 8.31072 c 0,4.5709 0.0835,8.31072 0.18561,8.31072 0.10209,0 0.97766,-0.60458 1.94572,-1.34352 3.63281,-2.77298 4.36205,-3.00112 9.57923,-2.99684 4.09173,0.003 4.92369,0.11144 6.23304,0.80976 1.74531,0.93083 2.47667,1.68694 3.41503,3.5306 0.95024,1.86701 1.35245,9.53752 1.05477,20.11572 l -0.24184,8.59404 h -3.32645 -3.32644 l -0.10969,-11.87243 c -0.10451,-11.31075 -0.14655,-11.92176 -0.88856,-12.91494 -0.42837,-0.57338 -1.21642,-1.36919 -1.75121,-1.76847 -2.09861,-1.56684 -6.67685,-1.16015 -9.89177,0.87869 -2.90921,1.84497 -2.92171,1.90794 -2.88874,14.55344 l 0.029,11.12371 h -3.40869 -3.40869 z"
     id="path442" />
  <path
     style="fill:#ffffff;stroke-width:0.37776"
     d="m 258.9286,200.59121 c -4.27633,-0.73394 -8.00656,-3.74929 -9.9879,-8.07377 -2.12285,-4.63335 -2.60872,-9.06873 -1.50584,-13.74643 1.23593,-5.242 4.18464,-9.23005 8.3292,-11.265 1.94679,-0.95586 2.67371,-1.10276 5.45694,-1.10276 2.70512,0 3.55652,0.16191 5.40452,1.02776 1.20646,0.56527 2.90638,1.63919 3.7776,2.3865 l 1.58403,1.35875 0.11419,-1.9143 0.11418,-1.91431 h 3.56898 3.56897 v 16.24368 16.24368 h -3.58872 -3.58872 v -1.69992 c 0,-0.93496 -0.0817,-1.69992 -0.18154,-1.69992 -0.0999,0 -1.1623,0.62742 -2.361,1.39426 -3.84899,2.46232 -7.28487,3.34875 -10.70489,2.76178 z m 9.40254,-7.20413 c 3.83184,-1.91479 3.84489,-1.94876 3.84489,-10.00347 v -6.90551 l -1.72994,-1.52276 c -4.89264,-4.30668 -12.22696,-3.13128 -14.99413,2.40295 -2.17906,4.35802 -1.44931,11.31883 1.5056,14.3614 3.00773,3.09697 7.26404,3.72095 11.37358,1.66739 z"
     id="path481" />
  <path
     style="fill:#ffffff;stroke-width:0.37776"
     d="m 285.39763,183.59133 v -16.24368 h 3.39984 3.39984 v 1.51104 c 0,0.83107 0.0622,1.51104 0.1383,1.51104 0.0761,0 1.81759,-0.79548 3.87004,-1.76774 3.21375,-1.52236 4.14411,-1.79161 6.70248,-1.93972 4.24759,-0.24589 6.75712,0.40548 8.7933,2.28237 2.66167,2.45343 2.78372,3.24769 2.78372,18.11509 v 12.77528 h -3.39984 -3.39984 v -10.55869 c 0,-6.10237 -0.17135,-11.35764 -0.40599,-12.45172 -0.69814,-3.25535 -3.53835,-4.99841 -7.19248,-4.41409 -1.93406,0.30927 -7.34053,3.01185 -7.65274,3.82544 -0.13032,0.33962 -0.23695,5.78834 -0.23695,12.10827 v 11.49079 h -3.39984 -3.39984 z"
     id="path520" />
  <path
     style="fill:#ffffff;stroke-width:0.37776"
     d="m 320.90707,183.59133 v -16.24368 h 3.39984 3.39984 v 1.51104 c 0,0.83107 0.0898,1.51104 0.19965,1.51104 0.10981,0 1.17226,-0.48801 2.361,-1.08448 4.5805,-2.29832 6.55194,-2.79773 10.38269,-2.63019 4.37551,0.19137 6.47268,1.22823 8.10673,4.00803 l 1.04888,1.78432 0.11203,13.6938 0.11203,13.6938 h -3.41743 -3.41743 v -11.08755 c 0,-11.55798 -0.14748,-12.85278 -1.65781,-14.55437 -2.3413,-2.63782 -7.19448,-2.46536 -11.41381,0.40559 -2.33991,1.59213 -2.41653,2.0438 -2.41653,14.24394 v 10.99239 h -3.39984 -3.39984 z"
     id="path559" />
  <path
     style="fill:#ffffff;stroke-width:0.37776"
     d="m 365.9414,199.90108 c -7.76535,-2.77927 -12.53121,-11.11138 -11.06104,-19.33792 0.66534,-3.72305 2.57635,-7.37198 5.12143,-9.77901 7.21497,-6.82362 19.25002,-5.74725 24.33461,2.17639 1.71362,2.67045 2.69387,5.86277 2.94535,9.59195 l 0.2229,3.3054 h -12.75292 -12.75291 l 0.26246,1.39903 c 0.84031,4.47924 4.85984,7.68133 9.6175,7.66162 1.99957,-0.008 5.84567,-0.99942 8.1997,-2.11305 1.14066,-0.53962 2.1161,-0.92115 2.16764,-0.84784 0.0515,0.0733 0.73189,1.02132 1.51189,2.1067 l 1.41818,1.97343 -1.74941,1.23753 c -3.13568,2.21819 -5.86661,3.01234 -10.95548,3.18586 -3.76303,0.12831 -4.87234,0.0332 -6.5299,-0.56009 z m 14.64344,-20.37067 c -0.0217,-2.72185 -3.00641,-6.3196 -5.98239,-7.21123 -5.13968,-1.53988 -10.72874,1.03836 -12.08836,5.57639 -0.8583,2.86473 -1.48882,2.67368 8.82393,2.67368 h 9.25512 l -0.008,-1.03884 z"
     id="path598" />
  <path
     style="fill:#ffffff;stroke-width:0.37776"
     d="m 106.10793,265.96659 c -8.260601,-1.30963 -14.815627,-6.9358 -17.377944,-14.91549 -1.291582,-4.02231 -1.615797,-10.11055 -0.755952,-14.19562 1.590962,-7.55856 7.182278,-14.19622 14.061706,-16.69317 5.06886,-1.8398 12.55337,-1.2224 17.99883,1.48473 13.04304,6.48413 15.68248,27.90145 4.74617,38.51207 -2.15895,2.09465 -5.61017,4.12912 -8.54043,5.03452 -2.77462,0.85731 -7.38288,1.20886 -10.13238,0.77296 z m 8.06777,-3.58201 c 6.08686,-1.62042 10.21676,-5.65688 12.37942,-12.09933 2.65802,-7.91812 0.79366,-17.76631 -4.33408,-22.89405 -3.62219,-3.62219 -10.17403,-5.74139 -15.42962,-4.99073 -5.63334,0.80462 -10.990486,4.68809 -13.312721,9.65059 -2.942146,6.28723 -2.90247,15.15207 0.09539,21.3123 1.291545,2.65396 4.856517,6.33204 7.390131,7.6246 3.6613,1.86785 9.23005,2.45654 13.21148,1.39662 z"
     id="path637" />
  <path
     style="fill:#ffffff;stroke-width:0.37776"
     d="m 146.02119,265.92702 c -2.67805,-0.5551 -4.9214,-2.16422 -6.03424,-4.32826 l -0.97129,-1.8888 -0.11624,-13.50492 -0.11624,-13.50492 h 1.72172 1.72172 v 11.19698 c 0,10.85144 0.0262,11.24944 0.8489,12.89674 1.08582,2.17415 3.43439,4.8445 4.95519,5.63411 2.93708,1.52495 8.44641,0.10081 11.43162,-2.95502 1.44429,-1.47846 1.46661,-1.5459 1.70887,-5.16362 0.135,-2.01607 0.2625,-7.7029 0.28332,-12.63739 l 0.0378,-8.9718 h 1.51104 1.51104 v 16.24368 16.24368 h -1.51104 -1.51104 v -2.26656 c 0,-1.24661 -0.076,-2.26656 -0.16887,-2.26656 -0.0929,0 -1.26872,0.83246 -2.61297,1.84992 -3.95836,2.99608 -8.64672,4.26068 -12.68934,3.42274 z"
     id="path676" />
  <path
     style="fill:#ffffff;stroke-width:0.37776"
     d="m 178.37212,265.79338 c -0.79288,-0.29373 -1.79379,-0.84772 -2.22425,-1.23107 -1.71835,-1.53029 -1.81166,-2.3633 -1.81166,-16.17302 v -13.04485 h -2.64432 -2.64432 v -1.32216 -1.32216 h 2.64432 2.64432 v -4.53312 -4.53312 h 1.51104 c 1.49182,0 1.51121,0.018 1.52471,1.4166 0.0425,4.40916 0.2116,6.86854 0.49129,7.14657 0.17385,0.1728 1.2788,0.27771 2.45544,0.23311 3.37563,-0.12793 3.83928,0.0652 3.83928,1.59932 v 1.31496 h -3.22508 -3.22508 l 0.10856,13.0658 0.10856,13.06581 1.05991,0.91131 c 1.20709,1.03787 2.08107,1.10707 4.22873,0.33482 1.37102,-0.49298 1.55581,-0.48337 1.99416,0.10371 0.69782,0.93461 0.4312,1.65985 -0.89492,2.43435 -1.62124,0.94686 -4.19942,1.17823 -5.94069,0.53314 z"
     id="path715" />
  <path
     style="fill:#ffffff;stroke-width:0.37776"
     d="m 197.76976,265.71601 c -5.19856,-1.39708 -8.91791,-5.67108 -10.39794,-11.94854 -1.10156,-4.67217 -0.6164,-9.13188 1.49052,-13.70103 1.54278,-3.34575 3.74423,-5.60195 6.94626,-7.119 2.23244,-1.05768 2.87653,-1.18874 5.72633,-1.16528 3.90333,0.0321 6.55531,1.08569 9.37727,3.72531 1.01475,0.94917 1.95486,1.72577 2.08914,1.72577 0.13428,0 0.24414,-3.90981 0.24414,-8.68848 v -8.68848 h 1.51104 1.51104 v 22.6656 22.6656 h -1.51104 -1.51104 v -2.50714 -2.50713 l -1.79436,1.66922 c -2.42526,2.25612 -4.06443,3.20797 -6.71186,3.89754 -2.71398,0.7069 -4.26986,0.70155 -6.9695,-0.024 z m 8.20003,-2.98979 c 2.25678,-0.67019 6.18455,-3.4902 6.8279,-4.90221 0.29999,-0.6584 0.44779,-3.61191 0.44779,-8.94784 0,-7.32616 -0.0611,-8.06385 -0.76138,-9.19698 -2.39297,-3.8719 -8.78937,-5.99139 -13.73899,-4.55249 -7.90188,2.29713 -11.10254,15.0435 -5.85378,23.31216 2.57815,4.0615 7.93057,5.81612 13.07846,4.28736 z"
     id="path754" />
  <path
     style="fill:#ffffff;stroke-width:0.37776"
     d=""
     id="path793" />
  <path
     style="fill:#ffffff;stroke-width:0.37776"
     d="m 235.53332,265.80609 c -4.66,-1.01231 -8.43696,-3.89453 -10.32021,-7.87538 -4.79699,-10.14001 -1.05141,-21.80569 8.12025,-25.29065 4.21987,-1.60342 8.67684,-1.28772 12.86677,0.91141 9.27005,4.86547 11.39773,19.25039 4.07741,27.56671 -3.77291,4.28625 -8.97675,5.94081 -14.74422,4.68791 z m 8.5652,-3.7671 c 2.32759,-1.17948 4.4396,-3.47976 5.73862,-6.25018 0.90912,-1.93888 0.99546,-2.53256 0.99546,-6.84501 0,-4.31245 -0.0863,-4.90613 -0.99546,-6.84502 -1.29541,-2.76271 -3.39607,-5.0545 -5.78025,-6.30619 -2.57048,-1.34948 -7.38476,-1.44453 -10.09096,-0.19923 -6.64617,3.05836 -9.42641,13.01429 -5.78425,20.71319 1.21681,2.57212 4.3666,5.50231 6.8337,6.35725 2.6055,0.9029 6.61224,0.62729 9.08314,-0.62481 z"
     id="path832" />
  <path
     style="fill:#ffffff;stroke-width:0.37776"
     d="m 271.70229,265.91063 c -3.90667,-0.92073 -8.44306,-4.46737 -10.22901,-7.99723 -3.58895,-7.09343 -2.44464,-16.07574 2.74737,-21.56552 3.5895,-3.79537 8.16981,-5.33628 13.19336,-4.43853 5.60059,1.00089 9.34345,3.75055 11.63153,8.54502 3.33948,6.99757 2.23481,15.63697 -2.66985,20.88044 -3.70371,3.95957 -9.55112,5.78305 -14.6734,4.57582 z m 7.28006,-3.25213 c 2.76397,-0.89266 5.61684,-3.58224 7.01774,-6.61603 1.02616,-2.22225 1.09746,-2.68348 1.09746,-7.09867 0,-4.32366 -0.0848,-4.90285 -1.00499,-6.86584 -1.27844,-2.72715 -3.53888,-5.18293 -5.86391,-6.37064 -2.54433,-1.29975 -7.41746,-1.33555 -9.97914,-0.0733 -5.17644,2.55063 -8.24587,9.39605 -7.14353,15.93147 0.62555,3.70868 2.15174,6.68377 4.52188,8.81473 3.11994,2.80509 7.1929,3.62234 11.35449,2.2783 z"
     id="path871" />
  <path
     style="fill:#ffffff;stroke-width:0.37776"
     d="m 297.48595,248.9438 v -16.24368 h 1.69992 1.69992 v 2.68763 2.68764 l 2.43012,-2.27326 c 2.43632,-2.27906 5.54401,-3.85753 7.59469,-3.85753 0.84675,0 0.93023,0.14835 0.93023,1.65314 v 1.65314 l -2.00374,0.16617 c -3.95206,0.32774 -8.1258,3.28176 -8.94689,6.33227 -0.31818,1.18211 -0.37265,3.2898 -0.18302,7.083 0.14847,2.97006 0.14673,7.865 -0.004,10.87764 l -0.27382,5.47752 h -1.47177 -1.47177 z"
     id="path910" />
  <path
     style="fill:#ffffff;stroke-width:0.37776"
     d="m 392.68145,177.16941 v -22.6656 h 3.39984 3.39984 v 22.6656 22.6656 h -3.39984 -3.39984 z"
     id="path949" />
  <path
     style="fill:#ffffff;stroke-width:0.37776"
     d="m 103.8255,265.2238 c -7.854503,-2.24779 -13.767451,-8.55966 -15.428014,-16.46888 -0.717939,-3.41953 -0.71188,-9.54304 0.01248,-12.61601 1.424029,-6.04117 6.361175,-12.19457 12.015434,-14.9754 2.8273,-1.3905 3.16629,-1.46464 7.38448,-1.61504 3.70144,-0.13197 4.90798,-0.0241 7.4118,0.66285 7.44329,2.04204 12.19883,6.56167 14.79618,14.0622 1.28927,3.72309 1.62678,10.58271 0.71201,14.47096 -2.46355,10.47133 -11.04113,17.24195 -21.74613,17.16504 -1.55826,-0.0112 -3.87947,-0.31977 -5.15824,-0.68572 z m 11.66613,-3.08737 c 7.68461,-2.58875 12.38011,-10.02812 12.38011,-19.61455 0,-12.20906 -7.65063,-20.39904 -19.05568,-20.39904 -6.10197,0 -12.524299,3.99558 -15.380829,9.56901 -1.350773,2.63552 -2.206596,6.90755 -2.200623,10.9849 0.01,6.80157 1.61564,11.21449 5.524349,15.1827 2.511167,2.5494 3.736223,3.31776 6.936143,4.35037 3.04519,0.98268 8.76732,0.94708 11.79653,-0.0734 z"
     id="path1037" />
  <path
     style="fill:#000000;stroke-width:0.37776"
     d="m 103.8255,265.2238 c -7.854503,-2.24779 -13.767451,-8.55966 -15.428014,-16.46888 -0.717939,-3.41953 -0.71188,-9.54304 0.01248,-12.61601 1.424029,-6.04117 6.361175,-12.19457 12.015434,-14.9754 2.82625,-1.38999 3.16747,-1.46469 7.37606,-1.61474 5.1518,-0.18368 7.82762,0.34902 12.0015,2.38923 4.76613,2.32971 8.34932,6.713 10.34169,12.65092 1.15189,3.43305 1.44424,10.5043 0.58522,14.15556 -2.46355,10.47133 -11.04113,17.24195 -21.74613,17.16504 -1.55826,-0.0112 -3.87947,-0.31977 -5.15824,-0.68572 z m 13.49368,-3.85991 c 1.76108,-0.83903 3.57421,-2.07789 4.72427,-3.22794 7.54298,-7.54298 7.79192,-22.83206 0.49734,-30.54499 -4.03215,-4.26341 -11.40645,-6.42442 -17.29242,-5.06749 -4.33249,0.9988 -9.43427,4.81976 -11.497876,8.61128 -1.578075,2.89945 -2.522497,7.16287 -2.51491,11.35312 0.01252,6.91695 1.726323,11.57461 5.738606,15.59603 3.73142,3.73991 6.93117,4.8761 13.33171,4.73391 3.8978,-0.0866 4.3325,-0.17672 7.01328,-1.45392 z"
     id="path1150" />
  <path
     style="fill:#000000;stroke-width:0.37776"
     d="m 129.1688,133.38023 c -4.03596,-0.66267 -9.29515,-4.64634 -11.43549,-8.66202 l -1.19437,-2.24086 V 109.17133 95.865305 l 2.68194,3.537139 c 9.10088,12.002936 19.16403,17.713136 34.83008,19.763886 13.97027,1.82876 30.53314,-0.35056 49.16353,-6.46887 22.7287,-7.46421 43.8059,-18.492007 71.09344,-37.19678 4.80849,-3.296068 8.82295,-5.992852 8.92102,-5.992852 0.36627,0 0.6649,40.112832 0.34627,46.512202 -0.28823,5.7888 -0.44695,6.89902 -1.21516,8.4996 -1.09101,2.27315 -4.89931,6.16368 -7.1693,7.3241 -3.83412,1.96 -0.45306,1.87741 -74.97799,1.83152 -38.22931,-0.0235 -70.19909,-0.1563 -71.04397,-0.29502 z"
     id="path1226" />
  <path
     style="fill:#000000;stroke-width:0.37776"
     d="m 168.16183,94.997565 c -7.47287,-1.419508 -13.44878,-4.298681 -17.69131,-8.523601 -3.54696,-3.532237 -5.27724,-6.172186 -6.58215,-10.042616 -1.66696,-4.944295 -1.40485,-12.102178 0.68235,-18.634078 3.6747,-11.499975 14.78056,-23.982652 29.40279,-33.047891 4.73216,-2.933758 18.11611,-9.438865 24.72822,-12.018846 13.90947,-5.4273432 26.7044,-8.888861 40.04255,-10.833044 12.41242,-1.80924817 25.3739,-1.98727911 30.7227,-0.4219885 7.20752,2.1092318 11.5013,5.8491895 13.25025,11.5411925 0.60455,1.967521 0.73963,4.244817 0.97859,16.498624 l 0.27722,14.216039 -3.5375,2.951639 c -5.61859,4.688065 -17.98846,13.767673 -26.2031,19.23333 -22.88219,15.224802 -46.34618,25.623642 -64.7911,28.714315 -5.20852,0.87275 -17.5008,1.084707 -21.27951,0.366925 z"
     id="path1265" />
  <path
     d="m 192.33,193.46368 c -0.21572,-0.0209 -0.56757,-0.0475 -1.06561,-0.0451 -0.3471,0.002 -0.73089,0.0161 -1.28205,0.0526 -0.91549,0.0605 -1.94723,0.12418 -2.33318,0.12581 a 0.06260545,0.06260545 90 0 0 5.2e-4,0.1252 c 0.38958,-0.002 1.42789,-0.0657 2.34091,-0.12607 0.54945,-0.0363 0.93057,-0.0507 1.27439,-0.0523 0.49306,-0.002 0.8406,0.0239 1.05294,0.0445 a 0.06260546,0.06260546 90 0 0 0.0121,-0.12462 z"
     id="path-1"
     inkscape:path-effect="#path-effect1686;#path-effect1688"
     inkscape:original-d="m 192.32396,193.52599 c -1.54434,-0.15249 -3.21934,0.13356 -4.67454,0.13356"
     style="fill:#000000;fill-rule:nonzero;stroke:none;stroke-width:1px;stroke-linecap:butt;stroke-linejoin:miter;stroke-opacity:1" />
  <path
     style="fill:#000000;stroke:none;stroke-opacity:1;stroke-linejoin:miter;stroke-linecap:butt;stroke-width:1px"
     d="M 185.91317,196.59783 20.56798,193.65955"
     id="path1692" />
  <path
     d="m 20.974755,193.45474 c 0.16289,-0.0159 0.478022,-0.0376 0.950209,0.0167 0.137543,0.0158 0.301597,0.0393 0.506835,0.0767 0.389717,0.0711 0.891351,0.19782 1.452936,0.30468 0.359985,0.0678 0.798715,0.15826 1.21706,0.19124 0.205918,0.0162 0.413201,0.0195 0.619519,0.002 0.208698,-0.0181 0.413177,-0.0576 0.612678,-0.12506 0.284425,-0.10452 0.462854,-0.2572 0.555627,-0.35052 a 0.06260546,0.06260546 90 0 0 -0.0888,-0.0883 c -0.08387,0.0844 -0.24736,0.22476 -0.508482,0.32073 -0.187308,0.0633 -0.381811,0.10104 -0.58184,0.11838 -0.197894,0.0172 -0.39807,0.0141 -0.598865,-0.002 -0.409844,-0.0323 -0.84005,-0.121 -1.203612,-0.18944 -0.555392,-0.10569 -1.059331,-0.23285 -1.453741,-0.30484 -0.20782,-0.0379 -0.374611,-0.0618 -0.515032,-0.078 -0.483036,-0.0555 -0.807323,-0.0335 -0.976696,-0.0169 a 0.06260545,0.06260545 90 0 0 0.0122,0.12462 z"
     id="path-1-6"
     inkscape:path-effect="#path-effect1702;#path-effect1704"
     inkscape:original-d="m 20.968654,193.39243 c 1.743187,-0.22391 4.656568,1.35356 5.876566,0.13356"
     style="fill:#000000;fill-rule:nonzero;stroke:none;stroke-width:1px;stroke-linecap:butt;stroke-linejoin:miter;stroke-opacity:1" />
  <path
     d="m 220.04485,177.07808 c -0.0918,0.26874 -0.19579,0.65966 -0.24191,1.23363 -0.0319,0.39653 -0.03,0.79695 -0.0239,1.15064 5.6e-4,0.0326 0.001,0.0657 0.002,0.0995 0.007,0.37697 0.0214,0.82693 0.008,1.24501 -0.0179,0.57332 -0.0827,0.94938 -0.14661,1.2186 a 0.06260545,0.06260545 90 0 0 0.12182,0.0289 c 0.0659,-0.27741 0.13174,-0.66185 0.14994,-1.24363 0.0132,-0.42219 -9.5e-4,-0.87676 -0.008,-1.25135 -6.5e-4,-0.0338 -0.001,-0.0668 -0.002,-0.0992 -0.006,-0.3531 -0.008,-0.7484 0.0235,-1.13848 0.0452,-0.56267 0.14684,-0.94337 0.23558,-1.20318 a 0.06260545,0.06260545 90 0 0 -0.11848,-0.0405 z"
     id="path-1-4"
     inkscape:path-effect="#path-effect1709;#path-effect1711"
     inkscape:original-d="m 220.10409,177.09832 c -0.54376,1.581 -0.0188,3.41407 -0.40067,4.94165"
     style="fill:#000000;fill-rule:nonzero;stroke:none;stroke-width:1px;stroke-linecap:butt;stroke-linejoin:miter;stroke-opacity:1" />
  <path
     d="m 286.95444,245.87547 c -0.0229,0.26537 -0.0341,0.6383 0.0359,1.27663 0.002,0.0143 0.003,0.0288 0.005,0.0437 0.0358,0.31773 0.10893,0.77568 0.15932,1.30193 0.0308,0.33891 0.0879,0.79494 0.10199,1.18393 0.0143,0.39394 -0.009,0.77932 -0.12096,1.15095 -0.14218,0.28818 -0.24937,0.56498 -0.32335,0.83296 -0.10682,0.38693 -0.12605,0.6909 -0.12506,0.89346 a 0.06260546,0.06260546 90 0 0 0.1252,-6.2e-4 c -9.4e-4,-0.19329 0.0173,-0.48558 0.12055,-0.85952 0.072,-0.26081 0.17692,-0.53174 0.31722,-0.81548 0.002,-0.003 0.003,-0.006 0.004,-0.01 0.1183,-0.39131 0.14231,-0.79353 0.12771,-1.19665 -0.0142,-0.39338 -0.0722,-0.85891 -0.10244,-1.19104 -0.051,-0.53286 -0.12406,-0.98931 -0.15957,-1.30432 -0.002,-0.0148 -0.003,-0.0292 -0.005,-0.0433 -0.0691,-0.63058 -0.0577,-0.99533 -0.0356,-1.25224 a 0.06260546,0.06260546 90 0 0 -0.12474,-0.0108 z"
     id="path-1-5"
     inkscape:path-effect="#path-effect1716;#path-effect1718"
     inkscape:original-d="m 287.01681,245.88085 c -0.16433,1.07964 0.63854,4.06523 0.13355,5.07521 -0.24006,0.48014 -0.40067,1.04009 -0.40067,1.6027"
     style="fill:#000000;fill-rule:nonzero;stroke:none;stroke-width:1px;stroke-linecap:butt;stroke-linejoin:miter;stroke-opacity:1" />
  <path
     d="m 250.76021,246.00817 c -0.0512,0.51235 -0.22612,1.64236 -0.37248,2.84573 -0.0756,0.62202 -0.12759,1.2155 -0.13487,1.80419 -0.004,0.32237 0.005,0.68504 0.0418,1.07061 0.067,0.576 0.1907,0.96128 0.33826,1.25857 a 0.06260546,0.06260546 90 0 0 0.11216,-0.0557 c -0.14017,-0.28241 -0.26041,-0.65336 -0.32591,-1.21611 -0.0362,-0.37884 -0.045,-0.7369 -0.0411,-1.05586 0.007,-0.5825 0.0586,-1.17109 0.13397,-1.79063 0.14573,-1.19827 0.32123,-2.33287 0.37276,-2.84838 a 0.06260545,0.06260545 90 0 0 -0.12458,-0.0125 z"
     id="path-1-2"
     inkscape:path-effect="#path-effect1723;#path-effect1725"
     inkscape:original-d="m 250.8225,246.0144 c -0.19564,2.02644 -0.96281,5.28652 -0.13355,6.94504"
     style="fill:#ffffff;fill-rule:nonzero;stroke:none;stroke-width:1px;stroke-linecap:butt;stroke-linejoin:miter;stroke-opacity:1" />
  <path
     style="fill:#ffffff;stroke-width:0.37776"
     d="m 127.71274,132.73353 c -3.67049,-1.29581 -7.87868,-4.83881 -9.87771,-8.31636 l -1.11722,-1.94353 0.0995,-12.91323 0.0994,-12.913217 1.82679,2.488238 c 4.2287,5.759859 10.30414,11.250459 15.93029,14.396779 11.20448,6.2659 28.77768,7.98337 47.78427,4.67006 15.11769,-2.63537 32.87116,-8.8408 50.61983,-17.69331 12.58766,-6.278345 21.5668,-11.630674 38.85852,-23.162982 6.11527,-4.078438 10.85715,-7.004616 11.04561,-6.816157 0.47294,0.472941 0.46569,48.128719 -0.008,50.863579 -0.21043,1.21557 -0.79609,2.91549 -1.30147,3.77759 -1.3598,2.31964 -5.20218,5.80002 -7.69061,6.96605 l -2.18391,1.02334 -71.20775,0.0814 c -63.69784,0.0728 -71.38388,0.0192 -72.87779,-0.50822 z"
     id="path2044" />
  <path
     style="fill:#ffffff;stroke-width:0.37776"
     d="m 167.15877,94.594909 c -3.58586,-0.802109 -8.74058,-2.774927 -11.3443,-4.34169 -4.9054,-2.951778 -9.53081,-8.257568 -11.37448,-13.047617 -1.22836,-3.191399 -1.63141,-9.493428 -0.89795,-14.04015 C 145.9927,47.9739 160.26045,31.973996 180.94701,21.219377 207.18974,7.5761963 234.94977,0.36219781 259.3322,0.84942319 c 6.93872,0.13865388 8.26437,0.26569101 10.57728,1.01361571 7.66946,2.4800751 12.13802,7.1834935 13.03687,13.7220821 0.17832,1.297162 0.43833,8.138203 0.57779,15.202314 l 0.25358,12.843838 -2.96764,2.454488 c -7.37644,6.100933 -23.18358,17.491226 -31.84141,22.944244 -20.8159,13.110623 -41.02859,21.816052 -58.57766,25.228883 -4.73807,0.921428 -19.65089,1.137121 -23.23224,0.336021 z"
     id="path2083" />
  <path
     style="fill:#ffffff;stroke-width:0.37776"
     d="m 103.10662,264.7012 c -6.719325,-2.29071 -11.919186,-7.58551 -13.990908,-14.24636 -0.997868,-3.20827 -1.339141,-9.18288 -0.730359,-12.78627 0.736764,-4.36092 2.904971,-8.3072 6.587994,-11.99059 2.195436,-2.19565 3.796543,-3.41833 5.688843,-4.34424 2.49144,-1.21907 2.88377,-1.29533 7.27397,-1.41387 5.50178,-0.14854 7.6404,0.24779 11.43598,2.11934 10.57357,5.2137 14.90069,20.17992 9.19866,31.81547 -2.68895,5.48706 -8.55287,10.0834 -14.41145,11.29617 -3.4002,0.70386 -8.24758,0.50666 -11.05273,-0.44965 z m 14.55713,-3.29106 c 3.49288,-1.75171 6.22744,-4.52854 7.89411,-8.01613 5.12627,-10.72702 1.91574,-24.26969 -6.85692,-28.92386 -3.5801,-1.89935 -6.08881,-2.44845 -10.44909,-2.28704 -3.43698,0.12723 -4.11578,0.27565 -6.39722,1.3988 -3.446581,1.69674 -7.092712,5.15987 -8.547626,8.11861 -3.189286,6.4858 -2.866787,17.33019 0.681694,22.92267 1.6176,2.54937 3.235579,4.26531 5.453425,5.78362 2.896257,1.98273 5.269027,2.50895 10.863777,2.40932 4.5649,-0.0813 4.8097,-0.12807 7.35785,-1.40599 z"
     id="path2122" />
  <path
     style="fill:#ffffff;stroke-width:0.37776"
     d=""
     id="path2235" />
  <path
     style="fill:#ffffff;stroke-width:0.37776"
     d=""
     id="path2274" />
  <path
     style="fill:#ffffff;stroke-width:0.37776"
     d="m 106.35727,265.1574 c -8.193214,-0.93608 -16.137306,-8.77178 -17.583051,-17.34313 -0.606829,-3.59769 -0.324671,-10.59604 0.522305,-12.95467 1.887509,-5.25628 6.757144,-10.84641 11.527266,-13.2328 l 2.78394,-1.39275 h 5.00922 c 3.94256,0 5.52043,0.15993 7.41,0.75109 8.98575,2.81123 14.71142,11.27032 14.70533,21.72562 -0.004,6.74744 -2.12932,12.1722 -6.43121,16.41476 -4.92164,4.85375 -10.84058,6.84343 -17.9438,6.03188 z m 11.47325,-3.55864 c 6.48081,-3.58781 9.74922,-9.38277 10.12034,-17.9436 0.41619,-9.60045 -3.1676,-16.505 -10.34596,-19.93258 l -2.95476,-1.41085 h -5.47752 -5.47752 l -2.38698,1.2942 c -2.82173,1.52991 -6.334225,4.81149 -7.747279,7.23795 -3.378261,5.80106 -3.368054,17.25169 0.02093,23.48062 2.033425,3.73741 6.416837,7.33097 10.069019,8.25465 0.64767,0.16381 3.64248,0.26522 6.65511,0.22536 5.31578,-0.0703 5.53797,-0.10594 7.52462,-1.20575 z"
     id="path2313" />
  <path
     style="fill:#ffffff;stroke-width:0.37776"
     d="m 106.35727,265.1574 c -8.193214,-0.93608 -16.137306,-8.77178 -17.583051,-17.34313 -0.613824,-3.63916 -0.324674,-10.58841 0.542432,-13.03647 1.815532,-5.1257 6.759358,-10.77579 11.507139,-13.151 l 2.78394,-1.39275 h 4.98044 c 5.2885,0 7.53917,0.43525 10.80693,2.08995 6.79445,3.44049 11.3099,11.43213 11.35178,20.09087 0.0222,4.58154 -0.53767,7.17736 -2.3773,11.02287 -3.96121,8.28041 -12.46888,12.81001 -22.01231,11.71966 z m 11.31495,-3.53263 c 6.47536,-3.16337 10.39774,-10.47952 10.38282,-19.36634 -0.0145,-8.60848 -3.72724,-15.18268 -10.45177,-18.50688 l -2.91262,-1.43982 h -5.49777 c -6.16352,0 -6.44895,0.0868 -10.727357,3.26269 -4.970726,3.68979 -6.995449,8.02059 -7.325815,15.66963 -0.325619,7.53913 1.275289,12.66005 5.215845,16.68425 4.014797,4.10001 6.548307,4.99965 13.761467,4.88661 4.99655,-0.0783 5.41383,-0.14403 7.5552,-1.19014 z"
     id="path2352" />
  <path
     style="fill:#ffffff;stroke-width:0.37776"
     d=""
     id="path2391" />
  <path
     style="fill:#ffffff;stroke-width:0.37776"
     d="m 106.35727,265.1574 c -8.193214,-0.93608 -16.137306,-8.77178 -17.583051,-17.34313 -0.613824,-3.63916 -0.324674,-10.58841 0.542432,-13.03647 1.815532,-5.1257 6.759358,-10.77579 11.507139,-13.151 l 2.78394,-1.39275 h 4.98044 c 5.28423,0 7.55063,0.43759 10.78397,2.08216 6.85964,3.489 11.33263,11.39258 11.37474,20.09866 0.0221,4.57903 -0.53763,7.17724 -2.3729,11.01378 -3.97133,8.30185 -12.45486,12.8212 -22.01671,11.72875 z m 11.26047,-3.54619 c 4.43907,-2.24921 7.35518,-5.74651 9.17909,-11.00852 0.91327,-2.63479 1.03571,-3.55145 1.0541,-7.89193 0.0234,-5.52359 -0.36301,-7.39023 -2.31328,-11.17462 -1.74524,-3.38654 -4.56383,-6.12933 -8.05431,-7.83772 l -2.8332,-1.38669 h -5.28864 c -4.99388,0 -5.40443,0.0572 -7.36632,1.02732 -2.684735,1.32749 -5.708598,3.83506 -7.500555,6.21993 -2.165186,2.8816 -3.134572,6.25236 -3.34772,11.64074 -0.300915,7.60712 1.081958,12.14269 4.98888,16.36263 4.097035,4.42528 6.679635,5.38326 14.170115,5.2562 4.8192,-0.0817 5.22146,-0.14817 7.31184,-1.20734 z"
     id="path2430" />
  <path
     style="fill:#ffffff;stroke-width:0.37776"
     d=""
     id="path2506" />
</svg>
